<svg xmlns="http://www.w3.org/2000/svg" width="156" height="22" viewBox="0 0 156 22">
  <g id="Icrypex_NFT" transform="translate(0.498 0.7)">
    <rect id="Box" width="156" height="22" transform="translate(-0.498 -0.7)" fill="#2a3553" opacity="0"/>
    <path id="Union_1" data-name="Union 1" d="M22008.137-316.513h-31.359a2.415,2.415,0,0,1-1.961-1.027l-5.326-7.43a2.787,2.787,0,0,1,0-3.5l5.326-7.435a2.493,2.493,0,0,1,1.961-.989h32.293a2.12,2.12,0,0,1,2.121,2.116v16.152a2.12,2.12,0,0,1-2.121,2.116Zm-43.447-14.252,3.447-4.811a3.215,3.215,0,0,1,2.631-1.353h2.287l-6.387,8.927Z" transform="translate(-21856.717 337.033)" fill="#357ce1" stroke="rgba(0,0,0,0)" stroke-miterlimit="10" stroke-width="1"/>
    <path id="Union_2" data-name="Union 2" d="M21974.531-318.555a10.422,10.422,0,0,1-2.02-2.17,10.366,10.366,0,0,1,1.465-13.452,10.333,10.333,0,0,1,14.6.549c.166.178.326.366.477.555.006.006.006.011.012.017a.247.247,0,0,1-.072.344l-2.264,1.509a.261.261,0,0,1-.328-.039,7.06,7.06,0,0,0-5.521-2.481,7.118,7.118,0,0,0-7.016,7.225,7.108,7.108,0,0,0,7.127,7.014v.006a7.121,7.121,0,0,0,5.41-2.492.248.248,0,0,1,.328-.039l2.264,1.509c.006.006.016.006.021.011a.251.251,0,0,1,.039.35,10.311,10.311,0,0,1-8.059,3.859A10.3,10.3,0,0,1,21974.531-318.555Zm102.859,2.081a.5.5,0,0,1-.41-.211l-4.961-6.931a.247.247,0,0,0-.344-.055.261.261,0,0,0-.057.055l-4.961,6.931a.494.494,0,0,1-.4.211h-3.209a.244.244,0,0,1-.145-.05.25.25,0,0,1-.055-.35l6.826-9.534a.425.425,0,0,0,0-.494l-6.826-9.528a.256.256,0,0,1,.055-.355.244.244,0,0,1,.145-.05h3.2a.5.5,0,0,1,.41.211l14.146,19.75a.253.253,0,0,1-.062.355.24.24,0,0,1-.143.044Zm-48.535-.006a.248.248,0,0,1-.25-.244l-.006-.011v-19.839a.253.253,0,0,1,.244-.261h7.809a6.74,6.74,0,0,1,6.787,6.387c.16,4.218-3.668,6.776-6.631,6.887-.861.033-3.119.033-4.768.028a.222.222,0,0,0-.229.222v6.587a.246.246,0,0,1-.248.244Zm2.957-16.909V-327a.225.225,0,0,0,.229.222h4.768a3.42,3.42,0,0,0,3.418-3.418,2.8,2.8,0,0,0-.023-.383,3.475,3.475,0,0,0-3.49-3.036h-4.672A.232.232,0,0,0,22031.813-333.389Zm-28.445,16.909a.411.411,0,0,1-.355-.205l-3.951-6.848-1.7-2.947a.2.2,0,0,1,.072-.272.225.225,0,0,1,.1-.028h2.586a3.415,3.415,0,0,0,3.418-3.413,3.578,3.578,0,0,0-.045-.566,3.48,3.48,0,0,0-3.463-2.858h-4.66a.247.247,0,0,0-.244.25l-.006,16.637a.244.244,0,0,1-.244.25h-2.715a.247.247,0,0,1-.244-.244v-.006l-.01-.006v-19.839a.257.257,0,0,1,.244-.261h7.824a6.737,6.737,0,0,1,6.766,6.182,6.606,6.606,0,0,1-4.1,6.465.2.2,0,0,0-.1.261c.006.006.006.017.012.022l4.141,7.175a.163.163,0,0,1-.057.228.153.153,0,0,1-.082.022Zm42.953-.006a.249.249,0,0,1-.25-.25v-19.839a.262.262,0,0,1,.25-.261h13.457a.262.262,0,0,1,.25.261v2.708a.249.249,0,0,1-.25.25h-10.25a.247.247,0,0,0-.244.244v4.85a.261.261,0,0,0,.244.261h8.59a.243.243,0,0,1,.244.244l.012,2.719a.249.249,0,0,1-.25.25h-8.6a.247.247,0,0,0-.244.244v4.85a.242.242,0,0,0,.238.25h10.25a.246.246,0,0,1,.25.255l.006,2.714a.249.249,0,0,1-.25.25Zm-30.988,0a.249.249,0,0,1-.25-.25v-6.243a.734.734,0,0,0-.1-.372l-7.57-13.108a.257.257,0,0,1,.09-.344.266.266,0,0,1,.127-.033h2.99a.492.492,0,0,1,.434.25l5.443,9.429a.228.228,0,0,0,.307.083.285.285,0,0,0,.082-.083l5.439-9.429a.5.5,0,0,1,.432-.25h3a.253.253,0,0,1,.25.25.266.266,0,0,1-.033.128l-7.576,13.113a.8.8,0,0,0-.1.372v6.238a.249.249,0,0,1-.25.25Zm-50.389,0a.248.248,0,0,1-.25-.244v-20.106a3.219,3.219,0,0,1,3.207,3.219v16.881a.248.248,0,0,1-.244.25Zm130.66-4.467-6.465-6.282v6.093h-2.186v-11.093h.105l6.453,6.265v-6.093h2.188v11.11Zm1.461-.189v-10.921h6.559v2.181h-4.367v2.192h3.752v2.181h-3.752v4.367Zm10.338-.017v-8.707h-2.68v-2.17h7.547v2.17h-2.676v8.707Z" transform="translate(-21964.691 336.933)" fill="#fff" stroke="rgba(0,0,0,0)" stroke-miterlimit="10" stroke-width="1"/>
  </g>
</svg>
