<svg xmlns="http://www.w3.org/2000/svg" width="118" height="22" viewBox="0 0 118 22">
  <g id="Icrypex" transform="translate(1.082 0.933)">
    <rect id="Box" width="118" height="22" transform="translate(-1.082 -0.933)" fill="#2a3553" opacity="0"/>
    <path id="X_Blue" data-name="X Blue" d="M-1301.338,1815.785a3.222,3.222,0,0,0-2.628,1.355l-3.448,4.814,1.977,2.759,6.385-8.928Z" transform="translate(1415.389 -1815.685)" fill="#357ce1"/>
    <path id="Type" d="M-2315.626,1831.054a10.364,10.364,0,0,1,1.468-13.454,10.329,10.329,0,0,1,14.6.552q.249.268.478.553l.012.017a.248.248,0,0,1-.07.344h0l-2.265,1.51a.26.26,0,0,1-.331-.039,7.046,7.046,0,0,0-5.52-2.478,7.12,7.12,0,0,0-7.017,7.221,7.12,7.12,0,0,0,7.132,7.018h0a7.105,7.105,0,0,0,5.406-2.491.26.26,0,0,1,.331-.039l2.265,1.51.017.012a.248.248,0,0,1,.041.349,10.329,10.329,0,0,1-14.521,1.584,10.334,10.334,0,0,1-2.022-2.171Zm104.877,4.25a.5.5,0,0,1-.406-.208l-4.96-6.932a.248.248,0,0,0-.346-.057.263.263,0,0,0-.057.057l-4.96,6.932a.5.5,0,0,1-.406.209h-3.207a.249.249,0,0,1-.144-.048.252.252,0,0,1-.058-.352h0l6.829-9.533a.424.424,0,0,0,0-.495l-6.829-9.531a.253.253,0,0,1,.058-.353.251.251,0,0,1,.144-.047h3.2a.5.5,0,0,1,.406.208l14.147,19.75a.253.253,0,0,1-.06.353.255.255,0,0,1-.142.047Zm-48.534,0a.247.247,0,0,1-.248-.247h0l-.008-.007V1815.2a.254.254,0,0,1,.247-.258h7.807a6.741,6.741,0,0,1,6.79,6.388c.157,4.214-3.673,6.775-6.633,6.888-.862.033-3.121.032-4.771.024a.223.223,0,0,0-.224.222v6.586a.248.248,0,0,1-.249.248Zm2.96-16.911v6.387a.224.224,0,0,0,.225.225h4.771a3.418,3.418,0,0,0,3.418-3.419,3.382,3.382,0,0,0-.021-.382,3.48,3.48,0,0,0-3.493-3.035h-4.673a.225.225,0,0,0-.225.224Zm-28.446,16.91a.413.413,0,0,1-.357-.207l-3.952-6.845-1.7-2.948a.2.2,0,0,1,.072-.273.2.2,0,0,1,.1-.027h2.583a3.419,3.419,0,0,0,3.42-3.417,3.439,3.439,0,0,0-.047-.564,3.471,3.471,0,0,0-3.458-2.855h-4.66a.248.248,0,0,0-.248.248v16.64a.248.248,0,0,1-.248.248h-2.712a.247.247,0,0,1-.248-.247h0l-.009-.007V1815.2a.255.255,0,0,1,.248-.258h7.822a6.731,6.731,0,0,1,6.764,6.178,6.609,6.609,0,0,1-4.094,6.468.2.2,0,0,0-.1.262l.009.019,4.145,7.18a.166.166,0,0,1-.06.226.166.166,0,0,1-.083.022Zm11.961,0a.25.25,0,0,1-.25-.249h0V1828.8a.747.747,0,0,0-.1-.375l-7.567-13.108a.249.249,0,0,1,.091-.341.252.252,0,0,1,.125-.033h2.992a.5.5,0,0,1,.432.25l5.442,9.426a.225.225,0,0,0,.307.082.224.224,0,0,0,.082-.082l5.442-9.426a.5.5,0,0,1,.432-.25h2.992a.25.25,0,0,1,.25.249.253.253,0,0,1-.033.125l-7.571,13.114a.747.747,0,0,0-.1.374v6.238a.249.249,0,0,1-.249.25h-2.717Zm-50.388,0a.248.248,0,0,1-.248-.247h0v-20.1a3.216,3.216,0,0,1,3.21,3.215v16.887a.248.248,0,0,1-.248.248h-2.712Zm81.377,0a.248.248,0,0,1-.248-.247h0V1815.2a.254.254,0,0,1,.248-.258h13.459a.254.254,0,0,1,.248.259v2.709a.248.248,0,0,1-.248.248h-10.25a.248.248,0,0,0-.248.248v4.847a.263.263,0,0,0,.248.259h8.587a.248.248,0,0,1,.248.248l.008,2.718a.247.247,0,0,1-.247.249h-8.6a.247.247,0,0,0-.248.248v4.849a.242.242,0,0,0,.238.248h10.255a.254.254,0,0,1,.248.259l0,2.713a.247.247,0,0,1-.247.247h-13.46Z" transform="translate(2323.445 -1814.845)" fill="#fff"/>
  </g>
</svg>
