<svg xmlns="http://www.w3.org/2000/svg" width="51" height="51" viewBox="0 0 51 51">
  <g id="Coin_icon" transform="translate(-97.8 -37.3)">
    <circle id="Ellipse_4" data-name="Ellipse 4" cx="25.5" cy="25.5" r="25.5" transform="translate(97.8 37.3)" fill="#e84142"/>
    <path id="Path_127" data-name="Path 127" d="M161.79,88.969c.88-1.521,2.3-1.521,3.181,0l5.482,9.624c.88,1.521.16,2.761-1.6,2.761H157.808c-1.741,0-2.461-1.241-1.6-2.761Zm-10.6-18.528c.88-1.521,2.281-1.521,3.161,0l1.221,2.2,2.881,5.062a5.259,5.259,0,0,1,0,4.582l-9.664,16.747a5.081,5.081,0,0,1-3.962,2.321H136.8c-1.761,0-2.481-1.221-1.6-2.761Z" transform="translate(-29.614 -25.597)" fill="#fff"/>
  </g>
</svg>
