<svg id="Icrypex_NFT" xmlns="http://www.w3.org/2000/svg" width="215" height="28.75" viewBox="0 0 215 28.75">
  <path id="X_Blue" data-name="X Blue" d="M-1298.956,1815.785a4.485,4.485,0,0,0-3.658,1.886l-4.8,6.7,2.751,3.84,8.888-12.426Z" transform="translate(1457.694 -1815.646)" fill="#357ce1"/>
  <path id="Type" d="M-2312.562,1837.4a14.424,14.424,0,0,1,2.043-18.726,14.376,14.376,0,0,1,20.317.768q.346.373.665.77l.017.024a.346.346,0,0,1-.1.478h0l-3.152,2.1a.361.361,0,0,1-.461-.054,9.808,9.808,0,0,0-7.683-3.45,9.909,9.909,0,0,0-9.767,10.051,9.909,9.909,0,0,0,9.926,9.768v0a9.889,9.889,0,0,0,7.524-3.468.362.362,0,0,1,.46-.054l3.153,2.1.023.017a.346.346,0,0,1,.058.485,14.377,14.377,0,0,1-20.211,2.2,14.392,14.392,0,0,1-2.814-3.022Zm145.969,5.916a.694.694,0,0,1-.564-.29l-6.9-9.648a.344.344,0,0,0-.481-.079.357.357,0,0,0-.079.079l-6.9,9.648a.7.7,0,0,1-.565.291h-4.463a.346.346,0,0,1-.2-.067.351.351,0,0,1-.081-.49h0l9.5-13.268a.589.589,0,0,0,0-.688l-9.505-13.266a.352.352,0,0,1,.08-.491.349.349,0,0,1,.2-.066h4.452a.693.693,0,0,1,.565.29l19.69,27.489a.352.352,0,0,1-.083.492.354.354,0,0,1-.2.065Zm-67.55-.007a.345.345,0,0,1-.346-.344h0l-.011-.01v-27.617a.354.354,0,0,1,.344-.358h10.866a9.383,9.383,0,0,1,9.451,8.891c.218,5.865-5.112,9.43-9.232,9.586-1.2.045-4.344.044-6.64.033a.31.31,0,0,0-.312.309v9.167a.346.346,0,0,1-.346.345Zm4.12-23.536v8.89a.312.312,0,0,0,.313.313h6.639a4.758,4.758,0,0,0,4.757-4.759,4.657,4.657,0,0,0-.03-.531,4.843,4.843,0,0,0-4.861-4.224h-6.5a.313.313,0,0,0-.313.312Zm-39.59,23.536a.575.575,0,0,1-.5-.288l-5.5-9.527-2.369-4.1a.278.278,0,0,1,.1-.38.283.283,0,0,1,.14-.037h3.594a4.758,4.758,0,0,0,4.76-4.756,4.779,4.779,0,0,0-.065-.785,4.83,4.83,0,0,0-4.813-3.973h-6.486a.345.345,0,0,0-.345.344l0,23.159a.345.345,0,0,1-.345.345h-3.774a.345.345,0,0,1-.345-.344h0l-.012-.01v-27.617a.355.355,0,0,1,.345-.358h10.886a9.368,9.368,0,0,1,9.414,8.6,9.2,9.2,0,0,1-5.7,9,.278.278,0,0,0-.142.365c0,.009.009.018.013.026l5.77,9.993a.231.231,0,0,1-.084.314.235.235,0,0,1-.115.031Zm16.648-.007a.348.348,0,0,1-.348-.346h0v-8.69a1.037,1.037,0,0,0-.139-.521l-10.532-18.244a.348.348,0,0,1,.126-.475.35.35,0,0,1,.174-.047h4.165a.694.694,0,0,1,.6.348l7.574,13.118a.313.313,0,0,0,.427.115.308.308,0,0,0,.115-.115l7.573-13.118a.7.7,0,0,1,.6-.348h4.165a.348.348,0,0,1,.349.347.352.352,0,0,1-.047.174l-10.538,18.252a1.035,1.035,0,0,0-.14.521v8.683a.347.347,0,0,1-.347.347h-3.781Zm-70.131,0a.346.346,0,0,1-.345-.344h0v-27.976a4.476,4.476,0,0,1,4.467,4.474v23.5a.344.344,0,0,1-.344.345h-3.775Zm113.261,0a.345.345,0,0,1-.345-.344h0v-27.617a.354.354,0,0,1,.345-.358h18.733a.354.354,0,0,1,.346.36v3.771a.345.345,0,0,1-.345.345h-14.265a.344.344,0,0,0-.344.345v6.746a.365.365,0,0,0,.344.36h11.951a.345.345,0,0,1,.345.345l.01,3.782a.344.344,0,0,1-.344.346h-11.963a.344.344,0,0,0-.344.345v6.748a.337.337,0,0,0,.331.345h14.273a.353.353,0,0,1,.345.361l.005,3.775a.344.344,0,0,1-.344.344h-18.734Z" transform="translate(2323.444 -1814.844)" fill="#fff"/>
  <path id="Path_1" data-name="Path 1" d="M-1215.58,1815.783h-44.95a3.472,3.472,0,0,0-2.731,1.379l-7.412,10.345a3.877,3.877,0,0,0,0,4.87l7.413,10.344a3.37,3.37,0,0,0,2.73,1.431h44.95a2.948,2.948,0,0,0,2.948-2.948v-22.475A2.948,2.948,0,0,0-1215.58,1815.783Z" transform="translate(1427.632 -1815.594)" fill="#357ce1"/>
  <g id="NFT" transform="translate(170.166 6.535)" style="isolation: isolate">
    <g id="Group_7422" data-name="Group 7422" style="isolation: isolate">
      <path id="Path_36510" data-name="Path 36510" d="M370.35,395.64V411.1h-.141l-8.991-8.747v8.484h-3.044V395.4h.15l8.972,8.728V395.64Z" transform="translate(-358.174 -395.396)" fill="#fff"/>
      <path id="Path_36511" data-name="Path 36511" d="M407.39,399.192v3.054h5.224v3.034H407.39v6.079h-3.044v-15.2h9.132v3.035Z" transform="translate(-390.27 -395.913)" fill="#fff"/>
      <path id="Path_36512" data-name="Path 36512" d="M445.787,399.29h-3.72v12.129h-3.054V399.29h-3.73v-3.016h10.5Z" transform="translate(-410.555 -395.992)" fill="#fff"/>
    </g>
  </g>
</svg>
