<svg id="icons_spite_30_categorysmclrd" xmlns="http://www.w3.org/2000/svg" width="210" height="30" viewBox="0 0 210 30">
  <g id="All">
    <rect id="icon_bg" width="30" height="30" fill="#fff" opacity="0"/>
    <g id="All-2" data-name="All" transform="translate(3.114 4.354)">
      <g id="Rectangle_27" data-name="Rectangle 27" transform="translate(2.886 1.646)" fill="#6499f3" stroke="#000" stroke-width="1">
        <rect width="8" height="8" rx="2" stroke="none"/>
        <rect x="0.5" y="0.5" width="7" height="7" rx="1.5" fill="none"/>
      </g>
      <g id="Rectangle_30" data-name="Rectangle 30" transform="translate(2.886 11.646)" fill="#fa4300" stroke="#000" stroke-width="1">
        <rect width="8" height="8" rx="2" stroke="none"/>
        <rect x="0.5" y="0.5" width="7" height="7" rx="1.5" fill="none"/>
      </g>
      <g id="Rectangle_28" data-name="Rectangle 28" transform="translate(13.886 1.646)" fill="#68ca44" stroke="#000" stroke-width="1">
        <rect width="8" height="8" rx="2" stroke="none"/>
        <rect x="0.5" y="0.5" width="7" height="7" rx="1.5" fill="none"/>
      </g>
      <g id="Rectangle_29" data-name="Rectangle 29" transform="translate(13.886 11.646)" fill="#707487" stroke="#000" stroke-width="1">
        <rect width="8" height="8" rx="2" stroke="none"/>
        <rect x="0.5" y="0.5" width="7" height="7" rx="1.5" fill="none"/>
      </g>
    </g>
  </g>
  <g id="Popular" transform="translate(30)">
    <rect id="icon_bg-2" data-name="icon_bg" width="30" height="30" fill="#fff" opacity="0"/>
    <g id="Popular-2" data-name="Popular" transform="translate(-4774.856 -1362.365)">
      <g id="Group_14" data-name="Group 14" transform="translate(4795.034 1367.093)">
        <path id="Path_76" data-name="Path 76" d="M4972.281,1375.948l-1.639.428-1.149,1.244-.428-1.638-1.245-1.15,1.639-.428,1.149-1.245.428,1.639Z" transform="translate(-4967.82 -1373.161)" fill="#4dabf4"/>
      </g>
      <path id="Path_77" data-name="Path 77" d="M4788.047,1545.679l-1.639.428-1.149,1.245-.428-1.638-1.244-1.149,1.638-.428,1.149-1.244.428,1.639Z" transform="translate(-6.068 -159.661)" fill="#4dabf4"/>
      <g id="Group_15" data-name="Group 15" transform="translate(4782.032 1370.913)">
        <path id="Path_78" data-name="Path 78" d="M4846.33,1418.882l-3.816,3.72.9,5.253-4.717-2.48-4.717,2.48.9-5.253-3.817-3.72,5.274-.766,2.359-4.779,2.358,4.779Z" transform="translate(-4831.064 -1413.337)" fill="#fbc41a"/>
      </g>
      <g id="Group_16" data-name="Group 16" transform="translate(4781.395 1370.275)">
        <path id="Path_79" data-name="Path 79" d="M4837.344,1422.424a.637.637,0,0,1-.3-.073l-4.42-2.324-4.42,2.324a.637.637,0,0,1-.925-.672l.844-4.923-3.577-3.486a.638.638,0,0,1,.354-1.088l4.942-.718,2.21-4.478a.638.638,0,0,1,.572-.355h0a.638.638,0,0,1,.572.355l2.21,4.478,4.942.718a.637.637,0,0,1,.354,1.088l-3.576,3.486.844,4.923a.638.638,0,0,1-.628.745Zm-10.979-9.166,2.892,2.818a.638.638,0,0,1,.184.564l-.683,3.98,3.574-1.879a.638.638,0,0,1,.593,0l3.574,1.879-.683-3.98a.637.637,0,0,1,.184-.564l2.891-2.818-4-.581a.637.637,0,0,1-.48-.349l-1.787-3.62-1.787,3.62a.637.637,0,0,1-.48.349Z" transform="translate(-4824.357 -1406.631)"/>
      </g>
      <g id="Group_17" data-name="Group 17" transform="translate(4794.397 1366.455)">
        <path id="Path_80" data-name="Path 80" d="M4963.424,1372.191a.639.639,0,0,1-.617-.477l-.381-1.458-1.107-1.023a.637.637,0,0,1,.271-1.085l1.458-.381,1.023-1.107a.637.637,0,0,1,1.085.271l.38,1.458,1.108,1.023a.638.638,0,0,1-.271,1.085l-1.458.381-1.023,1.107A.637.637,0,0,1,4963.424,1372.191Zm-.384-3.1.389.359a.639.639,0,0,1,.184.307l.133.511.359-.388a.637.637,0,0,1,.307-.184l.511-.133-.388-.359a.638.638,0,0,1-.184-.307l-.133-.511-.359.389a.641.641,0,0,1-.307.184Z" transform="translate(-4961.114 -1366.455)"/>
      </g>
      <g id="Group_18" data-name="Group 18" transform="translate(4776.881 1382.592)">
        <path id="Path_81" data-name="Path 81" d="M4779.19,1541.92a.639.639,0,0,1-.617-.477l-.381-1.458-1.107-1.022a.638.638,0,0,1,.271-1.085l1.458-.381,1.022-1.107a.638.638,0,0,1,1.085.271l.381,1.458,1.107,1.022a.638.638,0,0,1-.271,1.085l-1.458.381-1.022,1.107A.637.637,0,0,1,4779.19,1541.92Zm-.384-3.1.389.358a.638.638,0,0,1,.184.307l.133.51.358-.388a.64.64,0,0,1,.308-.185l.511-.133-.388-.358a.638.638,0,0,1-.184-.307l-.134-.511-.358.388a.638.638,0,0,1-.307.184Z" transform="translate(-4776.881 -1536.184)"/>
      </g>
      <path id="Path_82" data-name="Path 82" d="M4780.238,1407.906h-.638v-.637a.637.637,0,1,0-1.275,0v.637h-.638a.638.638,0,0,0,0,1.275h.638v.638a.637.637,0,1,0,1.275,0v-.638h.638a.638.638,0,1,0,0-1.275Z" transform="translate(-0.154 -36.356)"/>
      <path id="Path_83" data-name="Path 83" d="M5009.526,1507.537h-.637v-.637a.637.637,0,1,0-1.275,0v.637h-.638a.637.637,0,1,0,0,1.275h.638v.638a.637.637,0,1,0,1.275,0v-.638h.637a.637.637,0,1,0,0-1.275Z" transform="translate(-207.642 -126.515)"/>
    </g>
  </g>
  <g id="Photography" transform="translate(60)">
    <rect id="icon_bg-3" data-name="icon_bg" width="30" height="30" fill="#fff" opacity="0"/>
    <g id="Photography-2" data-name="Photography" transform="translate(-629.395 -2461.384)">
      <path id="Path_122" data-name="Path 122" d="M723.634,2548.816a4.292,4.292,0,1,1-4.292,4.292A4.291,4.291,0,0,1,723.634,2548.816Z" transform="translate(-79.238 -76.07)" fill="#6499f3"/>
      <path id="Path_123" data-name="Path 123" d="M660.51,2477.226v12.207a1,1,0,0,1-1,1H641.96a1,1,0,0,1-1-1v-12.207a1,1,0,0,1,1-1h1.86l.766-1.914a.748.748,0,0,1,.694-.47h3.756a.748.748,0,0,1,.694.47l.766,1.914h9.012A1,1,0,0,1,660.51,2477.226Zm-5.484,6.151a4.292,4.292,0,1,0-4.292,4.292A4.291,4.291,0,0,0,655.026,2483.377Z" transform="translate(-6.339 -6.34)" fill="#707487"/>
      <path id="Path_124" data-name="Path 124" d="M717.294,2551.538a4.769,4.769,0,1,1,4.769-4.769A4.774,4.774,0,0,1,717.294,2551.538Zm0-8.583a3.815,3.815,0,1,0,3.815,3.815A3.819,3.819,0,0,0,717.294,2542.955Z" transform="translate(-72.899 -69.732)"/>
      <path id="Path_125" data-name="Path 125" d="M653.169,2484.572H635.621a1.48,1.48,0,0,1-1.478-1.479v-12.207a1.48,1.48,0,0,1,1.478-1.478h1.537l.646-1.614a1.219,1.219,0,0,1,1.137-.77H642.7a1.219,1.219,0,0,1,1.137.77l.646,1.614h8.69a1.48,1.48,0,0,1,1.478,1.478v12.207A1.48,1.48,0,0,1,653.169,2484.572Zm-17.548-14.21a.525.525,0,0,0-.525.525v12.207a.525.525,0,0,0,.525.524h17.548a.525.525,0,0,0,.524-.524v-12.207a.525.525,0,0,0-.524-.525h-9.012a.477.477,0,0,1-.443-.3l-.766-1.914a.27.27,0,0,0-.252-.171h-3.755a.27.27,0,0,0-.252.17l-.766,1.914a.477.477,0,0,1-.443.3Z"/>
    </g>
  </g>
  <g id="Games" transform="translate(90)">
    <rect id="icon_bg-4" data-name="icon_bg" width="30" height="30" fill="#fff" opacity="0"/>
    <g id="Games-2" data-name="Games" transform="translate(1.412 1.692)">
      <path id="Path_97" data-name="Path 97" d="M2694.389,2240.547a2.8,2.8,0,0,0-2.8,2.8v6.666a2.99,2.99,0,1,0,5.98,0v-2.242a1.745,1.745,0,0,0,1.744-1.744v-.748h2.492v.748a1.745,1.745,0,0,0,1.744,1.744v2.243a2.99,2.99,0,1,0,5.981,0v-6.666a2.8,2.8,0,0,0-2.8-2.8h-12.335Z" transform="translate(-2687.228 -2229.458)" fill="#b9bdc6"/>
      <path id="Path_98" data-name="Path 98" d="M2852.309,2266.188a.575.575,0,0,1-.407.981h-.719v.719a.575.575,0,0,1-1.15,0v-.719h-.719a.575.575,0,0,1,0-1.15h.719v-.719a.575.575,0,1,1,1.15,0v.719h.719A.574.574,0,0,1,2852.309,2266.188Z" transform="translate(-2831.424 -2251.643)" fill="#68ca44"/>
      <path id="Path_99" data-name="Path 99" d="M2743.709,2264.725a.748.748,0,1,1-.748.748A.748.748,0,0,1,2743.709,2264.725Z" transform="translate(-2734.368 -2251.642)" fill="#fac600"/>
      <path id="Path_100" data-name="Path 100" d="M2713.487,2294.946a.748.748,0,1,1-.748.747A.748.748,0,0,1,2713.487,2294.946Z" transform="translate(-2706.638 -2279.371)" fill="#68ca44"/>
      <path id="Path_101" data-name="Path 101" d="M2743.709,2294.946a.748.748,0,1,1-.748.747A.748.748,0,0,1,2743.709,2294.946Z" transform="translate(-2734.368 -2279.371)" fill="#fb2b3a"/>
      <path id="Path_102" data-name="Path 102" d="M2713.487,2264.725a.748.748,0,1,1-.748.748A.748.748,0,0,1,2713.487,2264.725Z" transform="translate(-2706.638 -2251.642)" fill="#fb2b3a"/>
      <path id="Path_103" data-name="Path 103" d="M2895.566,2180.1a1.5,1.5,0,1,1-1.495,1.5A1.5,1.5,0,0,1,2895.566,2180.1Z" transform="translate(-2873.018 -2173.998)" fill="#6499f3"/>
      <rect id="Rectangle_25" data-name="Rectangle 25" width="5.981" height="0.997" transform="translate(16.319 19.313)" fill="#d7deed"/>
      <path id="Path_104" data-name="Path 104" d="M2777.67,2240.547v1.5h-4.486v-1.5h4.486Z" transform="translate(-2762.098 -2229.458)" fill="#c9f3ff"/>
      <path id="Path_105" data-name="Path 105" d="M2792.811,2223.161v.748h-1.5v-.748a.748.748,0,0,1,1.5,0Z" transform="translate(-2778.735 -2212.82)" fill="#414a56"/>
      <rect id="Rectangle_26" data-name="Rectangle 26" width="5.981" height="0.997" transform="translate(4.358 19.313)" fill="#d7deed"/>
      <path id="Path_106" data-name="Path 106" d="M2677.4,2201.392a1,1,0,1,1-1,1A1,1,0,0,1,2677.4,2201.392Z" transform="translate(-2673.302 -2193.531)" fill="#6499f3"/>
      <path id="Path_107" data-name="Path 107" d="M2703.761,2250.483a3.243,3.243,0,0,1-3.239-3.24v-2.009a2,2,0,0,1-1.745-1.978v-.5h-1.993v.5a1.994,1.994,0,0,1-1.744,1.979v2.008a3.24,3.24,0,1,1-6.479,0v-6.665a3.056,3.056,0,0,1,3.053-3.053h3.925a.249.249,0,0,1,0,.5h-3.925a2.557,2.557,0,0,0-2.554,2.554v6.666a2.741,2.741,0,1,0,5.482,0V2245a.249.249,0,0,1,.249-.249,1.495,1.495,0,0,0,1.5-1.5v-.748a.249.249,0,0,1,.249-.249h2.492a.249.249,0,0,1,.249.249v.748a1.5,1.5,0,0,0,1.5,1.5.249.249,0,0,1,.249.249v2.243a2.741,2.741,0,1,0,5.482,0v-6.666a2.557,2.557,0,0,0-2.554-2.554h-3.924a.249.249,0,1,1,0-.5h3.924a3.056,3.056,0,0,1,3.053,3.053v6.665a3.238,3.238,0,0,1-3.24,3.24Z" transform="translate(-2684.453 -2226.685)"/>
      <path id="Path_108" data-name="Path 108" d="M2710.714,2293.917a1,1,0,1,1,1-1A1,1,0,0,1,2710.714,2293.917Zm0-1.495a.5.5,0,1,0,.5.5A.5.5,0,0,0,2710.714,2292.423Z" transform="translate(-2703.864 -2276.599)"/>
      <path id="Path_109" data-name="Path 109" d="M2740.936,2293.917a1,1,0,1,1,1-1A1,1,0,0,1,2740.936,2293.917Zm0-1.495a.5.5,0,1,0,.5.5A.5.5,0,0,0,2740.936,2292.423Z" transform="translate(-2731.594 -2276.599)"/>
      <path id="Path_110" data-name="Path 110" d="M2710.714,2263.694a1,1,0,1,1,1-1A1,1,0,0,1,2710.714,2263.694Zm0-1.5a.5.5,0,1,0,.5.5A.5.5,0,0,0,2710.714,2262.2Z" transform="translate(-2703.864 -2248.867)"/>
      <path id="Path_111" data-name="Path 111" d="M2740.936,2263.694a1,1,0,1,1,1-1A1,1,0,0,1,2740.936,2263.694Zm0-1.5a.5.5,0,1,0,.5.5A.5.5,0,0,0,2740.936,2262.2Z" transform="translate(-2731.594 -2248.867)"/>
      <path id="Path_112" data-name="Path 112" d="M2847.833,2265.937a.825.825,0,0,1-.824-.824v-.469h-.47a.824.824,0,0,1,0-1.649h.47v-.469a.824.824,0,1,1,1.648,0v.469h.469a.824.824,0,1,1,0,1.649h-.469v.469a.824.824,0,0,1-.824.824Zm-1.294-2.444a.326.326,0,0,0-.326.326.326.326,0,0,0,.326.326h.719a.249.249,0,0,1,.249.249v.719a.326.326,0,1,0,.652,0v-.719a.249.249,0,0,1,.249-.249h.719a.326.326,0,0,0,0-.652h-.719a.249.249,0,0,1-.25-.249v-.718a.326.326,0,0,0-.652,0v.718a.249.249,0,0,1-.249.249Z" transform="translate(-2828.649 -2248.867)"/>
      <path id="Path_113" data-name="Path 113" d="M2694.792,2349.843h-5.98a.25.25,0,0,1,0-.5h5.98a.25.25,0,1,1,0,.5Z" transform="translate(-2684.453 -2329.284)"/>
      <path id="Path_114" data-name="Path 114" d="M2839.856,2349.843h-5.98a.25.25,0,0,1,0-.5h5.98a.25.25,0,0,1,0,.5Z" transform="translate(-2817.557 -2329.284)"/>
      <path id="Path_115" data-name="Path 115" d="M2694.792,2337.754h-5.98a.249.249,0,1,1,0-.5h5.98a.249.249,0,1,1,0,.5Z" transform="translate(-2684.453 -2318.192)"/>
      <path id="Path_116" data-name="Path 116" d="M2839.856,2337.754h-5.98a.249.249,0,1,1,0-.5h5.98a.249.249,0,1,1,0,.5Z" transform="translate(-2817.557 -2318.192)"/>
      <path id="Path_117" data-name="Path 117" d="M2774.9,2239.518h-4.485a.249.249,0,0,1-.25-.249v-1.495a.249.249,0,0,1,.25-.249h1.495a.249.249,0,0,1,0,.5h-1.246v1h3.987v-1H2773.4a.249.249,0,0,1,0-.5h1.5a.249.249,0,0,1,.249.249v1.495A.249.249,0,0,1,2774.9,2239.518Z" transform="translate(-2759.324 -2226.685)"/>
      <path id="Path_118" data-name="Path 118" d="M2790.037,2221.384h-1.5a.25.25,0,0,1-.249-.249v-.748a1,1,0,0,1,1-1,1,1,0,0,1,1,1v.748A.25.25,0,0,1,2790.037,2221.384Zm-1.246-.5h1v-.5a.5.5,0,0,0-.5-.5.5.5,0,0,0-.5.5v.5Z" transform="translate(-2775.961 -2210.045)"/>
      <path id="Path_119" data-name="Path 119" d="M2717.193,2156.112a.249.249,0,0,1-.249-.25v-.947a1.547,1.547,0,0,0-1.545-1.544h-3.937a1.745,1.745,0,0,1,0-3.489h14.2a.249.249,0,1,1,0,.5h-14.2a1.246,1.246,0,0,0,0,2.492h3.937a2.046,2.046,0,0,1,2.043,2.043v.947A.25.25,0,0,1,2717.193,2156.112Z" transform="translate(-2703.864 -2146.268)"/>
      <path id="Path_120" data-name="Path 120" d="M2892.792,2180.571a1.744,1.744,0,1,1,1.745-1.744A1.746,1.746,0,0,1,2892.792,2180.571Zm0-2.99a1.246,1.246,0,1,0,1.246,1.246A1.247,1.247,0,0,0,2892.792,2177.58Z" transform="translate(-2870.244 -2171.226)"/>
      <path id="Path_121" data-name="Path 121" d="M2674.631,2200.862a1.246,1.246,0,1,1,1.246-1.246A1.247,1.247,0,0,1,2674.631,2200.862Zm0-1.994a.748.748,0,1,0,.748.747A.748.748,0,0,0,2674.631,2198.869Z" transform="translate(-2670.528 -2190.758)"/>
    </g>
  </g>
  <g id="Domains" transform="translate(120)">
    <rect id="icon_bg-5" data-name="icon_bg" width="30" height="30" fill="#fff" opacity="0"/>
    <g id="Domains-2" data-name="Domains" transform="translate(-4774.856 -1362.365)">
      <g id="Group_14-2" data-name="Group 14" transform="translate(4795.034 1367.093)">
        <path id="Path_76-2" data-name="Path 76" d="M4972.281,1375.948l-1.639.428-1.149,1.244-.428-1.638-1.245-1.15,1.639-.428,1.149-1.245.428,1.639Z" transform="translate(-4967.82 -1373.161)" fill="#4dabf4"/>
      </g>
      <path id="Path_77-2" data-name="Path 77" d="M4788.047,1545.679l-1.639.428-1.149,1.245-.428-1.638-1.244-1.149,1.638-.428,1.149-1.244.428,1.639Z" transform="translate(-6.068 -159.661)" fill="#4dabf4"/>
      <g id="Group_15-2" data-name="Group 15" transform="translate(4782.032 1370.913)">
        <path id="Path_78-2" data-name="Path 78" d="M4846.33,1418.882l-3.816,3.72.9,5.253-4.717-2.48-4.717,2.48.9-5.253-3.817-3.72,5.274-.766,2.359-4.779,2.358,4.779Z" transform="translate(-4831.064 -1413.337)" fill="#fbc41a"/>
      </g>
      <g id="Group_16-2" data-name="Group 16" transform="translate(4781.395 1370.275)">
        <path id="Path_79-2" data-name="Path 79" d="M4837.344,1422.424a.637.637,0,0,1-.3-.073l-4.42-2.324-4.42,2.324a.637.637,0,0,1-.925-.672l.844-4.923-3.577-3.486a.638.638,0,0,1,.354-1.088l4.942-.718,2.21-4.478a.638.638,0,0,1,.572-.355h0a.638.638,0,0,1,.572.355l2.21,4.478,4.942.718a.637.637,0,0,1,.354,1.088l-3.576,3.486.844,4.923a.638.638,0,0,1-.628.745Zm-10.979-9.166,2.892,2.818a.638.638,0,0,1,.184.564l-.683,3.98,3.574-1.879a.638.638,0,0,1,.593,0l3.574,1.879-.683-3.98a.637.637,0,0,1,.184-.564l2.891-2.818-4-.581a.637.637,0,0,1-.48-.349l-1.787-3.62-1.787,3.62a.637.637,0,0,1-.48.349Z" transform="translate(-4824.357 -1406.631)"/>
      </g>
      <g id="Group_17-2" data-name="Group 17" transform="translate(4794.397 1366.455)">
        <path id="Path_80-2" data-name="Path 80" d="M4963.424,1372.191a.639.639,0,0,1-.617-.477l-.381-1.458-1.107-1.023a.637.637,0,0,1,.271-1.085l1.458-.381,1.023-1.107a.637.637,0,0,1,1.085.271l.38,1.458,1.108,1.023a.638.638,0,0,1-.271,1.085l-1.458.381-1.023,1.107A.637.637,0,0,1,4963.424,1372.191Zm-.384-3.1.389.359a.639.639,0,0,1,.184.307l.133.511.359-.388a.637.637,0,0,1,.307-.184l.511-.133-.388-.359a.638.638,0,0,1-.184-.307l-.133-.511-.359.389a.641.641,0,0,1-.307.184Z" transform="translate(-4961.114 -1366.455)"/>
      </g>
      <g id="Group_18-2" data-name="Group 18" transform="translate(4776.881 1382.592)">
        <path id="Path_81-2" data-name="Path 81" d="M4779.19,1541.92a.639.639,0,0,1-.617-.477l-.381-1.458-1.107-1.022a.638.638,0,0,1,.271-1.085l1.458-.381,1.022-1.107a.638.638,0,0,1,1.085.271l.381,1.458,1.107,1.022a.638.638,0,0,1-.271,1.085l-1.458.381-1.022,1.107A.637.637,0,0,1,4779.19,1541.92Zm-.384-3.1.389.358a.638.638,0,0,1,.184.307l.133.51.358-.388a.64.64,0,0,1,.308-.185l.511-.133-.388-.358a.638.638,0,0,1-.184-.307l-.134-.511-.358.388a.638.638,0,0,1-.307.184Z" transform="translate(-4776.881 -1536.184)"/>
      </g>
      <path id="Path_82-2" data-name="Path 82" d="M4780.238,1407.906h-.638v-.637a.637.637,0,1,0-1.275,0v.637h-.638a.638.638,0,0,0,0,1.275h.638v.638a.637.637,0,1,0,1.275,0v-.638h.638a.638.638,0,1,0,0-1.275Z" transform="translate(-0.154 -36.356)"/>
      <path id="Path_83-2" data-name="Path 83" d="M5009.526,1507.537h-.637v-.637a.637.637,0,1,0-1.275,0v.637h-.638a.637.637,0,1,0,0,1.275h.638v.638a.637.637,0,1,0,1.275,0v-.638h.637a.637.637,0,1,0,0-1.275Z" transform="translate(-207.642 -126.515)"/>
    </g>
  </g>
  <g id="Music" transform="translate(150)">
    <rect id="icon_bg-6" data-name="icon_bg" width="30" height="30" fill="#fff" opacity="0"/>
    <g id="Music-2" data-name="Music" transform="translate(2.114 2.354)">
      <path id="Path_55" data-name="Path 55" d="M1638.459,1031.12a1.027,1.027,0,1,1-1.026,1.027A1.027,1.027,0,0,1,1638.459,1031.12Z" transform="translate(-1633.776 -1026.404)" fill="#fcd884"/>
      <path id="Path_56" data-name="Path 56" d="M2072.247,1534.308a1.027,1.027,0,1,1-1.026,1.027A1.027,1.027,0,0,1,2072.247,1534.308Z" transform="translate(-2054.731 -1514.707)" fill="#f95948"/>
      <path id="Path_57" data-name="Path 57" d="M2210.8,1291.392a.77.77,0,1,1-.77.77A.77.77,0,0,1,2210.8,1291.392Z" transform="translate(-2189.434 -1278.977)" fill="#57606f"/>
      <path id="Path_58" data-name="Path 58" d="M2014.143,1080.03l-.021.14-4.513,4.513a4.565,4.565,0,0,0-1.6-1.6l4.513-4.513.139-.021a1.143,1.143,0,0,0,.272.432l.781.781A1.143,1.143,0,0,0,2014.143,1080.03Z" transform="translate(-1993.386 -1072.427)" fill="#57606f"/>
      <path id="Path_59" data-name="Path 59" d="M1774.212,1233.422l-7.118,7.118-.057.057-1.6-1.6.057-.057,7.118-7.118h0a4.567,4.567,0,0,1,1.6,1.6Z" transform="translate(-1757.989 -1221.165)" fill="#57606f"/>
      <path id="Path_60" data-name="Path 60" d="M2167.83,960.881a1.149,1.149,0,0,1,0,1.626l-1.984,1.984a1.148,1.148,0,0,1-1.625,0l-.781-.781a1.149,1.149,0,0,1,0-1.626l.391-.391,1.2-1.2.391-.391a1.15,1.15,0,0,1,1.626,0Z" transform="translate(-2143.897 -957.158)" fill="#fcd884"/>
      <path id="Path_61" data-name="Path 61" d="M1609.149,1219.993l.057-.058,7.118-7.118a4.54,4.54,0,0,1-2.253,6.53,5.671,5.671,0,0,1-5.142,5.434h-1.052a5.672,5.672,0,0,1,.312-11.315,4.54,4.54,0,0,1,6.53-2.252l-7.118,7.118-.057.057Z" transform="translate(-1600.101 -1200.56)" fill="#fcd884"/>
      <path id="Path_62" data-name="Path 62" d="M1595.026,1211.692c-.189,0-.377-.009-.565-.026a6.082,6.082,0,0,1,.072-12.119,4.95,4.95,0,0,1,7-2.219l.014.008a4.948,4.948,0,0,1,.984,7.762,4.909,4.909,0,0,1-1.447,1,6.08,6.08,0,0,1-5.5,5.564C1595.4,1211.683,1595.215,1211.692,1595.026,1211.692Zm4.013-14.222a4.133,4.133,0,0,0-3.845,2.622.41.41,0,0,1-.367.26,5.262,5.262,0,1,0,5.456,5.456.411.411,0,0,1,.261-.367,4.129,4.129,0,0,0,2.049-5.939,4.159,4.159,0,0,0-1.447-1.452l-.013-.007A4.106,4.106,0,0,0,1599.039,1197.469Z" transform="translate(-1586.724 -1187.036)"/>
      <path id="Path_63" data-name="Path 63" d="M2151.6,951.767h0a1.555,1.555,0,0,1-.517-.088,1.537,1.537,0,0,1-.587-.369l-.781-.781a1.553,1.553,0,0,1-.369-.587,1.571,1.571,0,0,1,.369-1.619l1.984-1.984a1.56,1.56,0,0,1,2.206,0l.781.781a1.56,1.56,0,0,1,0,2.206l-1.984,1.984A1.548,1.548,0,0,1,2151.6,951.767Zm1.2-5.064a.734.734,0,0,0-.522.216l-1.984,1.984a.743.743,0,0,0-.175.767.731.731,0,0,0,.175.278l.781.781a.739.739,0,0,0,1.045,0l1.984-1.984a.738.738,0,0,0,0-1.045l-.781-.781A.734.734,0,0,0,2152.8,946.7Z" transform="translate(-2130.459 -943.688)"/>
      <path id="Path_64" data-name="Path 64" d="M1753.891,1077.829a.41.41,0,0,1-.29-.7l7.118-7.118.013-.012,4.5-4.5a.41.41,0,0,1,.581.58l-4.513,4.514-.013.012-7.106,7.106A.409.409,0,0,1,1753.891,1077.829Z" transform="translate(-1746.391 -1059.647)"/>
      <path id="Path_65" data-name="Path 65" d="M1808.129,1132.049a.411.411,0,0,1-.291-.7l11.632-11.631a.411.411,0,0,1,.581.581l-11.632,11.632A.41.41,0,0,1,1808.129,1132.049Z" transform="translate(-1799.025 -1112.263)"/>
      <path id="Path_66" data-name="Path 66" d="M2162.245,918.646a.411.411,0,0,1-.291-.12l-1.6-1.6a.411.411,0,0,1,.581-.581l1.6,1.6a.411.411,0,0,1-.291.7Z" transform="translate(-2141.108 -914.903)"/>
      <path id="Path_67" data-name="Path 67" d="M2121.575,959.318a.41.41,0,0,1-.291-.12l-1.6-1.6a.411.411,0,1,1,.581-.581l1.6,1.6a.411.411,0,0,1-.29.7Z" transform="translate(-2101.641 -954.372)"/>
      <path id="Path_68" data-name="Path 68" d="M1715.693,1425.049a.409.409,0,0,1-.29-.12l-3.728-3.728a.411.411,0,0,1,.581-.581l3.727,3.727a.411.411,0,0,1-.29.7Z" transform="translate(-1705.706 -1404.266)"/>
      <path id="Path_69" data-name="Path 69" d="M1667.754,1472.991a.41.41,0,0,1-.29-.12l-3.727-3.727a.411.411,0,0,1,.581-.581l3.727,3.727a.411.411,0,0,1-.29.7Z" transform="translate(-1659.185 -1450.79)"/>
      <path id="Path_70" data-name="Path 70" d="M2009.183,895.718a.411.411,0,0,1-.411-.411v-1.7a.411.411,0,1,1,.821,0v1.7A.411.411,0,0,1,2009.183,895.718Z" transform="translate(-1994.131 -892.559)"/>
      <path id="Path_71" data-name="Path 71" d="M1951.659,953.239a.411.411,0,0,1-.411-.411v-1.7a.411.411,0,0,1,.821,0v1.7A.411.411,0,0,1,1951.659,953.239Z" transform="translate(-1938.308 -948.379)"/>
      <path id="Path_72" data-name="Path 72" d="M1624.986,1020.11a1.437,1.437,0,1,1,1.438-1.437A1.439,1.439,0,0,1,1624.986,1020.11Zm0-2.053a.616.616,0,1,0,.616.616A.617.617,0,0,0,1624.986,1018.057Z" transform="translate(-1620.303 -1012.931)"/>
      <path id="Path_73" data-name="Path 73" d="M2058.774,1523.305a1.437,1.437,0,1,1,1.437-1.437A1.439,1.439,0,0,1,2058.774,1523.305Zm0-2.053a.616.616,0,1,0,.616.616A.616.616,0,0,0,2058.774,1521.252Z" transform="translate(-2041.259 -1501.241)"/>
      <path id="Path_74" data-name="Path 74" d="M2197.328,1279.873a1.181,1.181,0,1,1,1.181-1.181A1.182,1.182,0,0,1,2197.328,1279.873Zm0-1.54a.359.359,0,1,0,.359.359A.359.359,0,0,0,2197.328,1278.333Z" transform="translate(-2175.963 -1265.508)"/>
      <path id="Path_75" data-name="Path 75" d="M1575.085,1677.412h-20.531a.411.411,0,0,1,0-.821h20.531a.411.411,0,1,1,0,.821Z" transform="translate(-1552.95 -1652.78)"/>
    </g>
  </g>
  <g id="Sports" transform="translate(180)">
    <rect id="icon_bg-7" data-name="icon_bg" width="30" height="30" fill="#fff" opacity="0"/>
    <g id="Sports-2" data-name="Sports" transform="translate(2.114 2.354)">
      <path id="Path_43" data-name="Path 43" d="M5383.821,365.456a3.721,3.721,0,1,1-3.721,3.721A3.721,3.721,0,0,1,5383.821,365.456Z" transform="translate(-5365.868 -364.358)" fill="#3f4751"/>
      <path id="Path_44" data-name="Path 44" d="M5462.876,621.841a1.672,1.672,0,1,1-1.672,1.672A1.672,1.672,0,0,1,5462.876,621.841Z" transform="translate(-5440.465 -600.172)" fill="#3256c1"/>
      <path id="Path_45" data-name="Path 45" d="M5227.137,413.468a2.09,2.09,0,1,1-2.09,2.09A2.09,2.09,0,0,1,5227.137,413.468Z" transform="translate(-5223.256 -408.518)" fill="#3256c1"/>
      <path id="Path_46" data-name="Path 46" d="M5407.516,391.218a1.654,1.654,0,1,1-1.654,1.654A1.653,1.653,0,0,1,5407.516,391.218Z" transform="translate(-5389.563 -388.053)" fill="#a9d4d8"/>
      <path id="Path_47" data-name="Path 47" d="M5237.414,463.4a3.622,3.622,0,0,1,4.936-.654l.632-7.541a2.5,2.5,0,0,0,3.006-.116l.652,9.44a2.574,2.574,0,0,1-2.562,2.824h-.637a3.622,3.622,0,0,1-6.027.609,4.737,4.737,0,1,1,0-4.562Z" transform="translate(-5226.454 -446.801)" fill="#ffd396"/>
      <path id="Path_48" data-name="Path 48" d="M5402.782,390.205a2.067,2.067,0,1,1,2.067-2.067A2.069,2.069,0,0,1,5402.782,390.205Zm0-3.308a1.24,1.24,0,1,0,1.24,1.24A1.243,1.243,0,0,0,5402.782,386.9Z" transform="translate(-5384.829 -383.319)"/>
      <path id="Path_49" data-name="Path 49" d="M5230.071,467.506a5.015,5.015,0,0,1-5.014-5.137,5.016,5.016,0,0,1,9.41-2.295.279.279,0,0,1-.488.269,4.459,4.459,0,1,0-7.1,5.262,4.459,4.459,0,0,0,7.1-.969.279.279,0,0,1,.461-.041,3.343,3.343,0,0,0,5.563-.562.279.279,0,0,1,.247-.15h.637a2.3,2.3,0,0,0,2.285-2.519s0-.005,0-.008l-.651-9.44a.278.278,0,1,1,.555-.038l.652,9.436a2.853,2.853,0,0,1-2.84,3.126h-.472a3.9,3.9,0,0,1-6.147.8A5.02,5.02,0,0,1,5230.071,467.506Z" transform="translate(-5223.264 -443.607)"/>
      <path id="Path_50" data-name="Path 50" d="M5336.118,461.814a.279.279,0,0,1-.216-.454,3.9,3.9,0,0,1,4.912-.961l.594-7.083a.279.279,0,1,1,.556.046l-.632,7.542a.279.279,0,0,1-.441.2,3.342,3.342,0,0,0-4.556.6A.28.28,0,0,1,5336.118,461.814Z" transform="translate(-5325.159 -444.934)"/>
      <path id="Path_51" data-name="Path 51" d="M5379.088,368.573a4.134,4.134,0,1,1,2.606-.925A4.108,4.108,0,0,1,5379.088,368.573Zm0-7.442a3.308,3.308,0,0,0,0,6.615,3.308,3.308,0,0,0,3.307-3.308A3.31,3.31,0,0,0,5379.088,361.131Z" transform="translate(-5361.135 -359.62)"/>
      <path id="Path_52" data-name="Path 52" d="M5336.57,556.93a.278.278,0,0,1-.271-.213,4.4,4.4,0,0,0-.427-1.1.279.279,0,0,1,.488-.269,5,5,0,0,1,.48,1.235.279.279,0,0,1-.205.337A.27.27,0,0,1,5336.57,556.93Z" transform="translate(-5325.158 -538.883)"/>
      <path id="Path_53" data-name="Path 53" d="M5223.946,414.728a2.369,2.369,0,1,1,2.369-2.368A2.371,2.371,0,0,1,5223.946,414.728Zm0-4.18a1.811,1.811,0,1,0,1.811,1.811A1.813,1.813,0,0,0,5223.946,410.548Z" transform="translate(-5220.065 -405.32)"/>
      <path id="Path_54" data-name="Path 54" d="M5459.685,622.268a1.951,1.951,0,1,1,1.95-1.951A1.953,1.953,0,0,1,5459.685,622.268Zm0-3.344a1.393,1.393,0,1,0,1.393,1.393A1.394,1.394,0,0,0,5459.685,618.924Z" transform="translate(-5437.273 -596.977)"/>
    </g>
  </g>
</svg>
