<svg id="icons_spite_usermenulinkssmclrd" xmlns="http://www.w3.org/2000/svg" width="168" height="28" viewBox="0 0 168 28">
  <g id="_28" data-name="28" transform="translate(-2)">
    <g id="MyWallet" transform="translate(2)">
      <rect id="icon_bg" width="28" height="28" fill="#fff" opacity="0"/>
      <g id="Wallet" transform="translate(129.5 -35.009)">
        <path id="Path_37046" data-name="Path 37046" d="M-124.526,45.281h-.989A1.46,1.46,0,0,1-127,43.8V58.64a1.46,1.46,0,0,0,1.485,1.485h.989Z" transform="translate(0 -1.302)" fill="#e9eaeb"/>
        <path id="Path_37047" data-name="Path 37047" d="M-127,43.444a1.458,1.458,0,0,0,1.483,1.485h18.8V41.959h-18.8A1.458,1.458,0,0,0-127,43.444Z" transform="translate(0 -0.949)" fill="#ffd5ab"/>
        <path id="Path_37048" data-name="Path 37048" d="M-106.712,44.928V41.959h-18.8A1.458,1.458,0,0,0-127,43.444" transform="translate(0 -0.949)" fill="none" stroke="#454545" stroke-miterlimit="10" stroke-width="1"/>
        <path id="Path_37049" data-name="Path 37049" d="M-108.219,43.979l-6.968-6.97-7,6.97" transform="translate(-0.924)" fill="#1fea46"/>
        <path id="Path_37050" data-name="Path 37050" d="M-108.219,43.979l-6.968-6.97-7,6.97" transform="translate(-0.924)" fill="#41db7c" stroke="#454545" stroke-miterlimit="10" stroke-width="1"/>
        <path id="Path_37051" data-name="Path 37051" d="M-110.89,45.058l-2.41-2.423a1.312,1.312,0,0,1-2.1,0l-2.421,2.422" transform="translate(-1.761 -1.079)" fill="#e9eaeb"/>
        <path id="Path_37052" data-name="Path 37052" d="M-110.89,45.058l-2.41-2.423a1.312,1.312,0,0,1-2.1,0l-2.421,2.422" transform="translate(-1.761 -1.079)" fill="#41db7c" stroke="#454545" stroke-miterlimit="10" stroke-width="1"/>
        <path id="Path_37053" data-name="Path 37053" d="M-104.239,60.125h-21.277A1.46,1.46,0,0,1-127,58.64V43.8a1.46,1.46,0,0,0,1.485,1.485h21.277V60.125Z" transform="translate(0 -1.302)" fill="#b27946" stroke="#454545" stroke-miterlimit="10" stroke-width="1"/>
        <path id="Path_37054" data-name="Path 37054" d="M-100.573,56.586h-7.175a2.721,2.721,0,0,1-2.721-2.722h0a2.721,2.721,0,0,1,2.721-2.721h7.175a.989.989,0,0,1,.989.989V55.6A.99.99,0,0,1-100.573,56.586Z" transform="translate(-3.171 -2.711)" fill="#b27946" stroke="#454545" stroke-miterlimit="10" stroke-width="1"/>
        <path id="Path_37055" data-name="Path 37055" d="M-108.02,54.217a1.237,1.237,0,0,1,1.237-1.237,1.237,1.237,0,0,1,1.237,1.237,1.237,1.237,0,0,1-1.237,1.237A1.237,1.237,0,0,1-108.02,54.217Z" transform="translate(-3.64 -3.063)" fill="#ffd5ab"/>
      </g>
    </g>
    <g id="AccountActivity" transform="translate(30)">
      <rect id="icon_bg-2" data-name="icon_bg" width="28" height="28" fill="#fff" opacity="0"/>
      <g id="Profile" transform="translate(-591.958 -2607.457)">
        <path id="Path_36532" data-name="Path 36532" d="M697.434,2791.061l-.016.025a3.307,3.307,0,0,1-2.51,2.01v4.434h-3.141V2793.1a4.168,4.168,0,0,1-2.667-2.183l0,0a6.95,6.95,0,0,0,1.46-1.312,4.86,4.86,0,0,0,5.233.1l.019-.017A7.02,7.02,0,0,0,697.434,2791.061Z" transform="translate(-87.187 -164.796)" fill="#4fc1e9"/>
        <path id="Path_36533" data-name="Path 36533" d="M767.43,2813.35h-9.724v-4.434a3.307,3.307,0,0,0,2.51-2.01l.016-.024a7.029,7.029,0,0,0,.936.487l3.375,1.447a4.68,4.68,0,0,1,2.1,1.834A5.122,5.122,0,0,1,767.43,2813.35Z" transform="translate(-149.985 -180.616)" fill="#656d78"/>
        <path id="Path_36534" data-name="Path 36534" d="M611.371,2811.7H601.262a4.986,4.986,0,0,1,2.887-4.535l3.375-1.447a7.164,7.164,0,0,0,1.177-.639l0,0a4.17,4.17,0,0,0,2.667,2.183v4.434Z" transform="translate(-6.791 -178.97)" fill="#656d78"/>
        <path id="Path_36535" data-name="Path 36535" d="M711.586,2771.882l-.019.017a4.86,4.86,0,0,1-5.233-.1,6.935,6.935,0,0,0,1.008-1.611v-.007a4.739,4.739,0,0,0,.926.091h1.151a4.781,4.781,0,0,0,1.063-.119A7.044,7.044,0,0,0,711.586,2771.882Z" transform="translate(-102.964 -147.002)" fill="#eaaf7a"/>
        <path id="Path_36536" data-name="Path 36536" d="M679.913,2646.119a4.8,4.8,0,0,1-1.063.119H677.7a4.76,4.76,0,0,1-4.764-4.764v-4.355c.117.041.238.079.359.114a5.656,5.656,0,0,0,6.409-2.59,2.512,2.512,0,0,0,3.859,1.21h0a4.769,4.769,0,0,1,.052.7v4.92A4.766,4.766,0,0,1,679.913,2646.119Z" transform="translate(-72.394 -22.965)" fill="#ffd5ab"/>
        <path id="Path_36537" data-name="Path 36537" d="M683.244,2619.887a4.709,4.709,0,0,1,.318,1.143h0a2.512,2.512,0,0,1-3.859-1.211,5.655,5.655,0,0,1-6.409,2.59c-.121-.033-.241-.072-.359-.113v-.564a4.762,4.762,0,0,1,4.764-4.764h1.151a4.76,4.76,0,0,1,4.394,2.92Z" transform="translate(-72.394 -6.786)" fill="#b27946"/>
        <path id="Path_36538" data-name="Path 36538" d="M668.03,2647.282a6.275,6.275,0,0,1-1.7-.234c-.13-.036-.264-.079-.4-.126a.628.628,0,0,1,.418-1.185c.108.038.215.072.319.1a5.025,5.025,0,0,0,5.7-2.3.628.628,0,0,1,1.136.112,1.884,1.884,0,0,0,2.895.908.628.628,0,0,1,.741,1.015,3.139,3.139,0,0,1-4.285-.548A6.286,6.286,0,0,1,668.03,2647.282Z" transform="translate(-65.602 -30.82)" fill="#454545"/>
        <path id="Path_36539" data-name="Path 36539" d="M672.061,2677H670.91a5.391,5.391,0,0,1-5.392-5.392v-3.416a.628.628,0,1,1,1.256,0v3.416a4.134,4.134,0,0,0,4.136,4.136h1.151a4.175,4.175,0,0,0,.924-.1,4.113,4.113,0,0,0,3.212-4.032v-3.416a.628.628,0,1,1,1.256,0v3.416a5.389,5.389,0,0,1-5.392,5.392Z" transform="translate(-65.605 -53.094)" fill="#454545"/>
        <path id="Path_36540" data-name="Path 36540" d="M676.824,2615.835a.628.628,0,0,1-.628-.628v-.261a4.17,4.17,0,0,0-.045-.61,4.092,4.092,0,0,0-.276-.992,4.174,4.174,0,0,0-2.214-2.214,4.119,4.119,0,0,0-1.6-.321h-1.151a4.1,4.1,0,0,0-1.6.321,4.171,4.171,0,0,0-2.214,2.214,4.109,4.109,0,0,0-.321,1.6v.261a.628.628,0,1,1-1.256,0v-.261a5.369,5.369,0,0,1,.419-2.088,5.439,5.439,0,0,1,2.886-2.885,5.357,5.357,0,0,1,2.087-.419h1.151a5.369,5.369,0,0,1,2.088.419,5.442,5.442,0,0,1,2.886,2.886,5.337,5.337,0,0,1,.361,1.3,5.41,5.41,0,0,1,.058.792v.261A.628.628,0,0,1,676.824,2615.835Z" transform="translate(-65.604 0)" fill="#454545"/>
        <path id="Path_36541" data-name="Path 36541" d="M617.445,2773.559H594.471a.628.628,0,0,1-.628-.628,5.79,5.79,0,0,1,.883-3.034,5.28,5.28,0,0,1,2.385-2.078l3.375-1.446a6.559,6.559,0,0,0,1.075-.583,6.3,6.3,0,0,0,2.245-2.658.628.628,0,1,1,1.146.516,7.565,7.565,0,0,1-2.691,3.186,7.825,7.825,0,0,1-1.28.695l-3.374,1.447a4.331,4.331,0,0,0-2.46,3.329h21.623a4.571,4.571,0,0,0-.643-1.739,4.029,4.029,0,0,0-1.815-1.59l-3.375-1.447a7.711,7.711,0,0,1-3.985-3.909.628.628,0,1,1,1.146-.516,6.445,6.445,0,0,0,3.334,3.27l3.376,1.447a5.28,5.28,0,0,1,2.385,2.078,5.791,5.791,0,0,1,.883,3.034A.629.629,0,0,1,617.445,2773.559Z" transform="translate(0 -140.198)" fill="#454545"/>
        <path id="Path_36542" data-name="Path 36542" d="M750.918,2807.445a.628.628,0,0,1-.628-.628v-4.428a.629.629,0,0,1,.555-.624,2.662,2.662,0,0,0,2-1.623.628.628,0,0,1,1.164.474,3.887,3.887,0,0,1-2.464,2.267v3.935A.628.628,0,0,1,750.918,2807.445Z" transform="translate(-143.197 -174.089)" fill="#454545"/>
        <path id="Path_36543" data-name="Path 36543" d="M685,2805.578a.628.628,0,0,1-.628-.629v-3.969a4.817,4.817,0,0,1-2.6-2.364.628.628,0,1,1,1.126-.557,3.515,3.515,0,0,0,2.234,1.846.625.625,0,0,1,.5.615v4.428A.628.628,0,0,1,685,2805.578Z" transform="translate(-80.422 -172.221)" fill="#454545"/>
        <path id="Path_36544" data-name="Path 36544" d="M702.207,2784.183a6,6,0,0,1-3.144-.949l-.007,0-.018-.013a.628.628,0,0,1,.726-1.025l0,0a4.8,4.8,0,0,0,1.523.625,3.8,3.8,0,0,0,3.012-.536.628.628,0,0,1,.688,1.051A5,5,0,0,1,702.207,2784.183Z" transform="translate(-96.044 -157.912)" fill="#454545"/>
        <g id="Arrow" transform="translate(618.899 2619.124) rotate(180)">
          <path id="Path_38" data-name="Path 38" d="M2.316,4.631,0,2.316,2.316,0" fill="none" stroke="#4fc1e9" stroke-linecap="round" stroke-linejoin="round" stroke-miterlimit="10" stroke-width="1"/>
          <line id="Line_40" data-name="Line 40" x2="3.876" transform="translate(1.797 2.316)" fill="none" stroke="#4fc1e9" stroke-linecap="round" stroke-width="1"/>
        </g>
        <g id="Arrow-2" data-name="Arrow" transform="translate(593.385 2620.828)">
          <path id="Path_38-2" data-name="Path 38" d="M2.275,4.55,0,2.275,2.275,0" fill="none" stroke="#4fc1e9" stroke-linecap="round" stroke-linejoin="round" stroke-miterlimit="10" stroke-width="1"/>
          <line id="Line_40-2" data-name="Line 40" x2="3.808" transform="translate(1.765 2.275)" fill="none" stroke="#4fc1e9" stroke-linecap="round" stroke-width="1"/>
        </g>
      </g>
    </g>
    <g id="MyNFTs" transform="translate(58)">
      <rect id="icon_bg-3" data-name="icon_bg" width="28" height="28" fill="#fff" opacity="0"/>
      <g id="Profile-2" data-name="Profile" transform="translate(-591.958 -2607.457)">
        <path id="Path_36532-2" data-name="Path 36532" d="M697.434,2791.061l-.016.025a3.307,3.307,0,0,1-2.51,2.01v4.434h-3.141V2793.1a4.168,4.168,0,0,1-2.667-2.183l0,0a6.95,6.95,0,0,0,1.46-1.312,4.86,4.86,0,0,0,5.233.1l.019-.017A7.02,7.02,0,0,0,697.434,2791.061Z" transform="translate(-87.187 -164.796)" fill="#4fc1e9"/>
        <path id="Path_36533-2" data-name="Path 36533" d="M767.43,2813.35h-9.724v-4.434a3.307,3.307,0,0,0,2.51-2.01l.016-.024a7.029,7.029,0,0,0,.936.487l3.375,1.447a4.68,4.68,0,0,1,2.1,1.834A5.122,5.122,0,0,1,767.43,2813.35Z" transform="translate(-149.985 -180.616)" fill="#656d78"/>
        <path id="Path_36534-2" data-name="Path 36534" d="M611.371,2811.7H601.262a4.986,4.986,0,0,1,2.887-4.535l3.375-1.447a7.164,7.164,0,0,0,1.177-.639l0,0a4.17,4.17,0,0,0,2.667,2.183v4.434Z" transform="translate(-6.791 -178.97)" fill="#656d78"/>
        <path id="Path_36535-2" data-name="Path 36535" d="M711.586,2771.882l-.019.017a4.86,4.86,0,0,1-5.233-.1,6.935,6.935,0,0,0,1.008-1.611v-.007a4.739,4.739,0,0,0,.926.091h1.151a4.781,4.781,0,0,0,1.063-.119A7.044,7.044,0,0,0,711.586,2771.882Z" transform="translate(-102.964 -147.002)" fill="#eaaf7a"/>
        <path id="Path_36536-2" data-name="Path 36536" d="M679.913,2646.119a4.8,4.8,0,0,1-1.063.119H677.7a4.76,4.76,0,0,1-4.764-4.764v-4.355c.117.041.238.079.359.114a5.656,5.656,0,0,0,6.409-2.59,2.512,2.512,0,0,0,3.859,1.21h0a4.769,4.769,0,0,1,.052.7v4.92A4.766,4.766,0,0,1,679.913,2646.119Z" transform="translate(-72.394 -22.965)" fill="#ffd5ab"/>
        <path id="Path_36537-2" data-name="Path 36537" d="M683.244,2619.887a4.709,4.709,0,0,1,.318,1.143h0a2.512,2.512,0,0,1-3.859-1.211,5.655,5.655,0,0,1-6.409,2.59c-.121-.033-.241-.072-.359-.113v-.564a4.762,4.762,0,0,1,4.764-4.764h1.151a4.76,4.76,0,0,1,4.394,2.92Z" transform="translate(-72.394 -6.786)" fill="#b27946"/>
        <path id="Path_36538-2" data-name="Path 36538" d="M668.03,2647.282a6.275,6.275,0,0,1-1.7-.234c-.13-.036-.264-.079-.4-.126a.628.628,0,0,1,.418-1.185c.108.038.215.072.319.1a5.025,5.025,0,0,0,5.7-2.3.628.628,0,0,1,1.136.112,1.884,1.884,0,0,0,2.895.908.628.628,0,0,1,.741,1.015,3.139,3.139,0,0,1-4.285-.548A6.286,6.286,0,0,1,668.03,2647.282Z" transform="translate(-65.602 -30.82)" fill="#454545"/>
        <path id="Path_36539-2" data-name="Path 36539" d="M672.061,2677H670.91a5.391,5.391,0,0,1-5.392-5.392v-3.416a.628.628,0,1,1,1.256,0v3.416a4.134,4.134,0,0,0,4.136,4.136h1.151a4.175,4.175,0,0,0,.924-.1,4.113,4.113,0,0,0,3.212-4.032v-3.416a.628.628,0,1,1,1.256,0v3.416a5.389,5.389,0,0,1-5.392,5.392Z" transform="translate(-65.605 -53.094)" fill="#454545"/>
        <path id="Path_36540-2" data-name="Path 36540" d="M676.824,2615.835a.628.628,0,0,1-.628-.628v-.261a4.17,4.17,0,0,0-.045-.61,4.092,4.092,0,0,0-.276-.992,4.174,4.174,0,0,0-2.214-2.214,4.119,4.119,0,0,0-1.6-.321h-1.151a4.1,4.1,0,0,0-1.6.321,4.171,4.171,0,0,0-2.214,2.214,4.109,4.109,0,0,0-.321,1.6v.261a.628.628,0,1,1-1.256,0v-.261a5.369,5.369,0,0,1,.419-2.088,5.439,5.439,0,0,1,2.886-2.885,5.357,5.357,0,0,1,2.087-.419h1.151a5.369,5.369,0,0,1,2.088.419,5.442,5.442,0,0,1,2.886,2.886,5.337,5.337,0,0,1,.361,1.3,5.41,5.41,0,0,1,.058.792v.261A.628.628,0,0,1,676.824,2615.835Z" transform="translate(-65.604 0)" fill="#454545"/>
        <path id="Path_36541-2" data-name="Path 36541" d="M617.445,2773.559H594.471a.628.628,0,0,1-.628-.628,5.79,5.79,0,0,1,.883-3.034,5.28,5.28,0,0,1,2.385-2.078l3.375-1.446a6.559,6.559,0,0,0,1.075-.583,6.3,6.3,0,0,0,2.245-2.658.628.628,0,1,1,1.146.516,7.565,7.565,0,0,1-2.691,3.186,7.825,7.825,0,0,1-1.28.695l-3.374,1.447a4.331,4.331,0,0,0-2.46,3.329h21.623a4.571,4.571,0,0,0-.643-1.739,4.029,4.029,0,0,0-1.815-1.59l-3.375-1.447a7.711,7.711,0,0,1-3.985-3.909.628.628,0,1,1,1.146-.516,6.445,6.445,0,0,0,3.334,3.27l3.376,1.447a5.28,5.28,0,0,1,2.385,2.078,5.791,5.791,0,0,1,.883,3.034A.629.629,0,0,1,617.445,2773.559Z" transform="translate(0 -140.198)" fill="#454545"/>
        <path id="Path_36542-2" data-name="Path 36542" d="M750.918,2807.445a.628.628,0,0,1-.628-.628v-4.428a.629.629,0,0,1,.555-.624,2.662,2.662,0,0,0,2-1.623.628.628,0,0,1,1.164.474,3.887,3.887,0,0,1-2.464,2.267v3.935A.628.628,0,0,1,750.918,2807.445Z" transform="translate(-143.197 -174.089)" fill="#454545"/>
        <path id="Path_36543-2" data-name="Path 36543" d="M685,2805.578a.628.628,0,0,1-.628-.629v-3.969a4.817,4.817,0,0,1-2.6-2.364.628.628,0,1,1,1.126-.557,3.515,3.515,0,0,0,2.234,1.846.625.625,0,0,1,.5.615v4.428A.628.628,0,0,1,685,2805.578Z" transform="translate(-80.422 -172.221)" fill="#454545"/>
        <path id="Path_36544-2" data-name="Path 36544" d="M702.207,2784.183a6,6,0,0,1-3.144-.949l-.007,0-.018-.013a.628.628,0,0,1,.726-1.025l0,0a4.8,4.8,0,0,0,1.523.625,3.8,3.8,0,0,0,3.012-.536.628.628,0,0,1,.688,1.051A5,5,0,0,1,702.207,2784.183Z" transform="translate(-96.044 -157.912)" fill="#454545"/>
      </g>
    </g>
    <g id="Setting" transform="translate(86)">
      <rect id="icon_bg-4" data-name="icon_bg" width="28" height="28" fill="#fff" opacity="0"/>
      <g id="Setting-2" data-name="Setting" transform="translate(2 2)">
        <path id="Path_36546" data-name="Path 36546" d="M1761.06,1751.411a2.745,2.745,0,0,1-.881-1.574,2.665,2.665,0,0,1,.83-1.6,2.961,2.961,0,0,0-2.193-5.06,1.906,1.906,0,0,1-2.282-2.217,2.968,2.968,0,0,0-5.139-2.03,2.679,2.679,0,0,1-1.569.88,2.734,2.734,0,0,1-1.593-.83,2.965,2.965,0,0,0-5.067,2.186,2.707,2.707,0,0,1-.492,1.74,2.741,2.741,0,0,1-1.725.544,2.959,2.959,0,0,0-2.026,5.127,1.9,1.9,0,0,1,.051,3.179,2.959,2.959,0,0,0,2.182,5.06,2.732,2.732,0,0,1,1.739.5,2.7,2.7,0,0,1,.547,1.72,3.038,3.038,0,0,0,1.869,2.76,2.84,2.84,0,0,0,1.046.2,3,3,0,0,0,2.229-.933,2.667,2.667,0,0,1,1.574-.881,2.721,2.721,0,0,1,1.6.835,2.962,2.962,0,0,0,5.06-2.19,2.741,2.741,0,0,1,.492-1.739,2.678,2.678,0,0,1,1.72-.545h.077a2.964,2.964,0,0,0,1.951-5.132ZM1750,1755a5,5,0,1,1,5-5A5,5,0,0,1,1750,1755Z" transform="translate(-1737.996 -1737.985)" fill="#62abff"/>
        <path id="Path_36531" data-name="Path 36531" d="M8.362,24A2.81,2.81,0,0,1,7.316,23.8,3.036,3.036,0,0,1,5.447,21.04,2.708,2.708,0,0,0,4.9,19.32a2.736,2.736,0,0,0-1.739-.5A3.064,3.064,0,0,1,.346,17.038,3.06,3.06,0,0,1,.979,13.76a2.708,2.708,0,0,0,.83-1.6,2.723,2.723,0,0,0-.881-1.579A3.067,3.067,0,0,1,.19,7.323,3.056,3.056,0,0,1,2.954,5.454,2.735,2.735,0,0,0,4.679,4.91,2.709,2.709,0,0,0,5.171,3.17,3.053,3.053,0,0,1,6.958.351a3.064,3.064,0,0,1,3.28.633,2.729,2.729,0,0,0,1.593.83h0A2.673,2.673,0,0,0,13.4.934,3.08,3.08,0,0,1,16.67.2a3.062,3.062,0,0,1,1.869,2.764,2.691,2.691,0,0,0,.547,1.725,2.708,2.708,0,0,0,1.735.492,3.059,3.059,0,0,1,2.822,1.78,3.07,3.07,0,0,1-.629,3.28,2.666,2.666,0,0,0-.83,1.6,2.741,2.741,0,0,0,.881,1.574,2.964,2.964,0,0,1-1.951,5.132h-.077a2.68,2.68,0,0,0-1.72.545,2.738,2.738,0,0,0-.492,1.739A3.085,3.085,0,0,1,17.04,23.65a3.054,3.054,0,0,1-3.275-.629,2.725,2.725,0,0,0-1.6-.835h0a2.673,2.673,0,0,0-1.574.881A3,3,0,0,1,8.362,24Zm-5.05-6.5a3.921,3.921,0,0,1,2.517.871,4.031,4.031,0,0,1,.96,2.723A1.737,1.737,0,0,0,7.81,22.556a1.728,1.728,0,0,0,1.766-.374,3.977,3.977,0,0,1,2.553-1.336,3.953,3.953,0,0,1,2.6,1.255,1.641,1.641,0,0,0,2.769-1.2,3.987,3.987,0,0,1,.861-2.75,4.035,4.035,0,0,1,2.728-.96h.031A1.636,1.636,0,0,0,22.191,14.4a3.977,3.977,0,0,1-1.336-2.553,3.953,3.953,0,0,1,1.255-2.6,1.737,1.737,0,0,0,.319-1.78,1.732,1.732,0,0,0-1.512-.988,3.966,3.966,0,0,1-2.75-.866,4.053,4.053,0,0,1-.96-2.728,1.732,1.732,0,0,0-1.029-1.468,1.728,1.728,0,0,0-1.766.374,3.9,3.9,0,0,1-2.555,1.329h-.026a3.993,3.993,0,0,1-2.57-1.25,1.735,1.735,0,0,0-1.78-.319,1.742,1.742,0,0,0-.988,1.514,3.979,3.979,0,0,1-.861,2.75,3.966,3.966,0,0,1-2.723.948H2.88A1.737,1.737,0,0,0,1.44,7.8a1.728,1.728,0,0,0,.374,1.766,3.976,3.976,0,0,1,1.336,2.558,3.958,3.958,0,0,1-1.25,2.6A1.728,1.728,0,0,0,1.582,16.5a1.742,1.742,0,0,0,1.514.988A1.8,1.8,0,0,0,3.311,17.491ZM12,17.083a5.084,5.084,0,1,1,2.025-.422l-.262-.609.262.609A5.126,5.126,0,0,1,12,17.083Zm0-8.827a3.685,3.685,0,0,0-1.48.31A3.738,3.738,0,1,0,12,8.254Z" transform="translate(0.017 -0.004)" fill="#454545"/>
      </g>
    </g>
    <g id="History" transform="translate(114)">
      <rect id="icon_bg-5" data-name="icon_bg" width="28" height="28" fill="#fff" opacity="0"/>
      <g id="History-2" data-name="History" transform="translate(98.193 -144.845)">
        <g id="Rectangle_147" data-name="Rectangle 147" transform="translate(-94.193 150.318)" fill="#656d78" stroke="#454545" stroke-width="1">
          <rect width="20.045" height="18.181" rx="1.548" stroke="none"/>
          <rect x="-0.5" y="-0.5" width="21.045" height="19.181" rx="2.048" fill="none"/>
        </g>
        <g id="Path_37058" data-name="Path 37058" transform="translate(-94.193 150.318)" fill="#fc2c37">
          <path d="M 20.54479598999023 3.553221225738525 L 20.04479598999023 3.553221225738525 L -3.912353349733166e-06 3.553221225738525 L -0.5000039339065552 3.553221225738525 L -0.5000039339065552 3.053221225738525 L -0.5000039339065552 1.547591328620911 C -0.5000039339065552 0.4185513257980347 0.4185460805892944 -0.4999986588954926 1.547596096992493 -0.4999986588954926 L 18.49720573425293 -0.4999986588954926 C 19.62624549865723 -0.4999986588954926 20.54479598999023 0.4185513257980347 20.54479598999023 1.547591328620911 L 20.54479598999023 3.053221225738525 L 20.54479598999023 3.553221225738525 Z" stroke="none"/>
          <path d="M 1.547586441040039 1.430511474609375e-06 C 0.6928768157958984 1.430511474609375e-06 -3.814697265625e-06 0.6928813457489014 -3.814697265625e-06 1.547591328620911 L -3.814697265625e-06 3.053221225738525 C 0.9885158538818359 3.053221225738525 19.29124641418457 3.053221225738525 20.04479598999023 3.053221225738525 L 20.04479598999023 1.547591328620911 C 20.04479598999023 0.6928813457489014 19.35191535949707 1.430511474609375e-06 18.49720573425293 1.430511474609375e-06 L 1.547586441040039 1.430511474609375e-06 M 1.547586441040039 -0.9999985694885254 L 18.49720573425293 -0.9999985694885254 C 19.90195655822754 -0.9999985694885254 21.04479598999023 0.1428413391113281 21.04479598999023 1.547591328620911 L 21.04479598999023 4.053221225738525 L -1.000003814697266 4.053221225738525 L -1.000003814697266 1.547591328620911 C -1.000003814697266 0.1428413391113281 0.1428356170654297 -0.9999985694885254 1.547586441040039 -0.9999985694885254 Z" stroke="none" fill="#454545"/>
        </g>
        <rect id="Rectangle_148" data-name="Rectangle 148" width="0.959" height="2.948" rx="0.335" transform="translate(-91.392 147.845)" fill="#454545"/>
        <rect id="Rectangle_149" data-name="Rectangle 149" width="0.959" height="2.948" rx="0.335" transform="translate(-77.959 147.845)" fill="#454545"/>
        <g id="Group_7905" data-name="Group 7905" transform="translate(-92.436 155.772)">
          <circle id="Ellipse_32" data-name="Ellipse 32" cx="1.524" cy="1.524" r="1.524" fill="#d9dfe6"/>
          <circle id="Ellipse_33" data-name="Ellipse 33" cx="1.524" cy="1.524" r="1.524" transform="translate(4.478)" fill="#d9dfe6"/>
          <circle id="Ellipse_34" data-name="Ellipse 34" cx="1.524" cy="1.524" r="1.524" transform="translate(8.955)" fill="#d9dfe6"/>
          <circle id="Ellipse_35" data-name="Ellipse 35" cx="1.524" cy="1.524" r="1.524" transform="translate(0 4.124)" fill="#d9dfe6"/>
          <circle id="Ellipse_36" data-name="Ellipse 36" cx="1.524" cy="1.524" r="1.524" transform="translate(4.478 4.124)" fill="#d9dfe6"/>
          <circle id="Ellipse_37" data-name="Ellipse 37" cx="1.524" cy="1.524" r="1.524" transform="translate(8.955 4.124)" fill="#d9dfe6"/>
          <circle id="Ellipse_38" data-name="Ellipse 38" cx="1.524" cy="1.524" r="1.524" transform="translate(13.433)" fill="#d9dfe6"/>
          <circle id="Ellipse_39" data-name="Ellipse 39" cx="1.524" cy="1.524" r="1.524" transform="translate(13.433 4.124)" fill="#d9dfe6"/>
          <circle id="Ellipse_40" data-name="Ellipse 40" cx="1.524" cy="1.524" r="1.524" transform="translate(0 8.249)" fill="#d9dfe6"/>
          <circle id="Ellipse_41" data-name="Ellipse 41" cx="1.524" cy="1.524" r="1.524" transform="translate(4.478 8.249)" fill="#d9dfe6"/>
          <circle id="Ellipse_42" data-name="Ellipse 42" cx="1.524" cy="1.524" r="1.524" transform="translate(8.955 8.249)" fill="#d9dfe6"/>
          <circle id="Ellipse_43" data-name="Ellipse 43" cx="1.524" cy="1.524" r="1.524" transform="translate(13.433 8.249)" fill="#d9dfe6"/>
        </g>
      </g>
    </g>
    <g id="Logout" transform="translate(142)">
      <rect id="icon_bg-6" data-name="icon_bg" width="28" height="28" fill="#fff" opacity="0"/>
      <g id="Logout-2" data-name="Logout" transform="translate(-348.99 -265)">
        <g id="Ellipse_44" data-name="Ellipse 44" transform="translate(349.99 266)" fill="#ef727a" stroke="#454545" stroke-width="1">
          <circle cx="13" cy="13" r="13" stroke="none"/>
          <circle cx="13" cy="13" r="12.5" fill="none"/>
        </g>
        <g id="Group_7909" data-name="Group 7909" transform="translate(-154.852 246.953)">
          <path id="Path_37059" data-name="Path 37059" d="M12.064,5.584c0-.038,0-.075-.011-.112a1.232,1.232,0,0,0-.046-.156c-.009-.029-.014-.059-.025-.086a1.281,1.281,0,0,0-.083-.16c-.012-.022-.021-.047-.036-.069a1.369,1.369,0,0,0-.119-.149c-.016-.018-.028-.038-.045-.056h0l-.666-.666L7.291.388A1.325,1.325,0,0,0,5.418,2.261L7.554,4.4h-6.3v0a1.323,1.323,0,0,0,0,2.642v0h6.3L5.418,9.184a1.325,1.325,0,1,0,1.873,1.873L11.7,6.649h0c.016-.016.026-.034.041-.051a1.448,1.448,0,0,0,.123-.154c.013-.021.021-.043.034-.064a1.431,1.431,0,0,0,.085-.165c.011-.027.016-.056.025-.083a1.307,1.307,0,0,0,.046-.159c.007-.037.007-.074.011-.111a1.325,1.325,0,0,0,.013-.138A1.315,1.315,0,0,0,12.064,5.584Z" transform="translate(520.632 37.779) rotate(180)" fill="#ffe3e5"/>
          <path id="Path_37060" data-name="Path 37060" d="M3.635,12.593c-.6,0-1.422.148-1.913-.273-.338-.289-.273-.805-.273-1.2V2.926a1.625,1.625,0,0,1,.273-1.2c.384-.448,1.391-.273,1.913-.273A.725.725,0,0,0,3.635,0,5.767,5.767,0,0,0,1.254.286,2.389,2.389,0,0,0,0,2.476v9.093a2.5,2.5,0,0,0,1.254,2.189,4.6,4.6,0,0,0,2.381.284A.725.725,0,0,0,3.635,12.593Z" transform="translate(524.017 39.078) rotate(180)" fill="#ffe3e5"/>
        </g>
      </g>
    </g>
  </g>
</svg>
