<svg id="icons_spite_iconsetautoclrd" xmlns="http://www.w3.org/2000/svg" width="146" height="34" viewBox="0 0 146 34">
  <g id="_34" data-name="34">
    <g id="Deposit">
      <rect id="icon_bg" width="34" height="34" fill="#fff" opacity="0"/>
      <g id="Deposit-2" data-name="Deposit" transform="translate(2 2)">
        <path id="Path_36553" data-name="Path 36553" d="M1605.766,1581.022H1584.73a3.712,3.712,0,0,1-3.713,3.712v9.9a3.712,3.712,0,0,1,3.713,3.712h21.036a3.712,3.712,0,0,1,3.712-3.712v-9.9A3.712,3.712,0,0,1,1605.766,1581.022Z" transform="translate(-1580.399 -1580.403)" fill="#80af52"/>
        <path id="Path_36554" data-name="Path 36554" d="M1842.506,1581.022v3.712a3.712,3.712,0,0,1-3.712-3.712Z" transform="translate(-1813.426 -1580.403)" fill="#70993f"/>
        <path id="Path_36555" data-name="Path 36555" d="M1842.506,1722.8v3.712h-3.712A3.712,3.712,0,0,1,1842.506,1722.8Z" transform="translate(-1813.426 -1708.566)" fill="#70993f"/>
        <path id="Path_36556" data-name="Path 36556" d="M1802.289,1651.906a2.166,2.166,0,1,1-2.165,2.166A2.165,2.165,0,0,1,1802.289,1651.906Z" transform="translate(-1778.469 -1644.482)" fill="#70993f"/>
        <path id="Path_36557" data-name="Path 36557" d="M1615.408,1651.906a2.166,2.166,0,1,1-2.166,2.166A2.166,2.166,0,0,1,1615.408,1651.906Z" transform="translate(-1609.53 -1644.482)" fill="#70993f"/>
        <path id="Path_36558" data-name="Path 36558" d="M1694.284,1613.242c2.05,0,3.712,2.493,3.712,5.569s-1.662,5.568-3.712,5.568-3.713-2.494-3.713-5.568S1692.234,1613.242,1694.284,1613.242Z" transform="translate(-1679.434 -1609.53)" fill="#70993f"/>
        <path id="Path_36559" data-name="Path 36559" d="M1581.017,1581.022h3.713a3.712,3.712,0,0,1-3.713,3.712Z" transform="translate(-1580.399 -1580.403)" fill="#70993f"/>
        <path id="Path_36560" data-name="Path 36560" d="M1584.73,1726.508h-3.713V1722.8A3.712,3.712,0,0,1,1584.73,1726.508Z" transform="translate(-1580.399 -1708.566)" fill="#70993f"/>
        <path id="Path_36561" data-name="Path 36561" d="M1603.658,1593.14H1575.2a.619.619,0,0,1-.618-.619V1575.2a.619.619,0,0,1,.618-.619h28.461a.619.619,0,0,1,.618.619v17.324A.618.618,0,0,1,1603.658,1593.14Zm-27.843-1.238h27.224v-16.087h-27.224Z" transform="translate(-1574.578 -1574.578)"/>
        <path id="Path_36562" data-name="Path 36562" d="M1688.458,1619.172a3.817,3.817,0,0,1-3.14-1.907,8.286,8.286,0,0,1,0-8.562,3.539,3.539,0,0,1,6.28,0,8.286,8.286,0,0,1,0,8.562A3.817,3.817,0,0,1,1688.458,1619.172Zm0-11.137a2.631,2.631,0,0,0-2.11,1.356,7.059,7.059,0,0,0,0,7.188,2.32,2.32,0,0,0,4.221,0,7.062,7.062,0,0,0,0-7.188A2.632,2.632,0,0,0,1688.458,1608.035Z" transform="translate(-1673.608 -1603.704)"/>
        <path id="Path_36563" data-name="Path 36563" d="M1575.2,1579.528a.619.619,0,0,1,0-1.238,3.1,3.1,0,0,0,3.094-3.094.619.619,0,0,1,1.238,0A4.336,4.336,0,0,1,1575.2,1579.528Z" transform="translate(-1574.578 -1574.578)"/>
        <path id="Path_36564" data-name="Path 36564" d="M1578.909,1721.3a.619.619,0,0,1-.619-.619,3.1,3.1,0,0,0-3.094-3.093.619.619,0,0,1,0-1.238,4.336,4.336,0,0,1,4.331,4.331A.618.618,0,0,1,1578.909,1721.3Z" transform="translate(-1574.578 -1702.739)"/>
        <path id="Path_36565" data-name="Path 36565" d="M1836.681,1579.528a4.336,4.336,0,0,1-4.331-4.331.619.619,0,0,1,1.237,0,3.1,3.1,0,0,0,3.094,3.094.619.619,0,0,1,0,1.238Z" transform="translate(-1807.601 -1574.578)"/>
        <path id="Path_36566" data-name="Path 36566" d="M1832.969,1721.3a.619.619,0,0,1-.619-.619,4.336,4.336,0,0,1,4.331-4.331.619.619,0,0,1,0,1.238,3.1,3.1,0,0,0-3.094,3.093A.618.618,0,0,1,1832.969,1721.3Z" transform="translate(-1807.601 -1702.739)"/>
        <path id="Path_36567" data-name="Path 36567" d="M1603.658,1794.922H1575.2a.619.619,0,0,1,0-1.237h28.461a.619.619,0,0,1,0,1.237Z" transform="translate(-1574.578 -1772.648)"/>
        <path id="Path_36568" data-name="Path 36568" d="M1603.658,1833.587H1575.2a.619.619,0,0,1,0-1.237h28.461a.619.619,0,0,1,0,1.237Z" transform="translate(-1574.578 -1807.601)"/>
        <path id="Path_36569" data-name="Path 36569" d="M1603.658,1872.252H1575.2a.619.619,0,0,1,0-1.238h28.461a.619.619,0,0,1,0,1.238Z" transform="translate(-1574.578 -1842.553)"/>
        <path id="Path_36570" data-name="Path 36570" d="M1609.581,1651.035a2.784,2.784,0,1,1,2.784-2.784A2.787,2.787,0,0,1,1609.581,1651.035Zm0-4.331a1.547,1.547,0,1,0,1.547,1.547A1.548,1.548,0,0,0,1609.581,1646.7Z" transform="translate(-1603.704 -1638.661)"/>
        <path id="Path_36571" data-name="Path 36571" d="M1796.464,1651.035a2.784,2.784,0,1,1,2.784-2.784A2.788,2.788,0,0,1,1796.464,1651.035Zm0-4.331a1.547,1.547,0,1,0,1.547,1.547A1.548,1.548,0,0,0,1796.464,1646.7Z" transform="translate(-1772.644 -1638.661)"/>
      </g>
    </g>
    <g id="CurrAvax" transform="translate(34)">
      <rect id="icon_bg-2" data-name="icon_bg" width="34" height="34" fill="#fff" opacity="0"/>
      <g id="Avax" transform="translate(2.857 2.857)">
        <circle id="Ellipse_4" data-name="Ellipse 4" cx="14" cy="14" r="14" transform="translate(0.143 0.143)" fill="#e84142" stroke="#000" stroke-width="2"/>
        <path id="Path_127" data-name="Path 127" d="M148.265,79.1a.837.837,0,0,1,1.586,0l2.733,4.8c.439.758.08,1.376-.8,1.376H146.28c-.868,0-1.227-.618-.8-1.376Zm-5.286-9.236a.83.83,0,0,1,1.576,0l.608,1.1,1.436,2.523a2.622,2.622,0,0,1,0,2.284l-4.817,8.348a2.533,2.533,0,0,1-1.975,1.157h-4c-.878,0-1.237-.608-.8-1.376Z" transform="translate(-129.654 -64.632)" fill="#fff" stroke="#000" stroke-width="2"/>
      </g>
    </g>
    <g id="CurrTransfer" transform="translate(68)">
      <rect id="icon_bg-3" data-name="icon_bg" width="34" height="34" fill="#fff" opacity="0"/>
      <g id="Transfer" transform="translate(1 4)">
        <path id="Path_37045" data-name="Path 37045" d="M1988.7,1976.319a2.993,2.993,0,0,0-.181,1.03,3.075,3.075,0,0,0,.441,1.6l-8.528,9.147a2.328,2.328,0,0,0-1.4-.577c-.04,0-.08,0-.12,0a2.136,2.136,0,0,0-.8.156,2.21,2.21,0,0,0-.487.273l-2.616-3.1a2.706,2.706,0,0,0,.266-.536,2.991,2.991,0,0,0,.181-1.03,3.072,3.072,0,0,0-.441-1.6l8.527-9.147a2.328,2.328,0,0,0,1.4.577,2.128,2.128,0,0,0,.921-.152,2.224,2.224,0,0,0,.487-.273l2.616,3.1A2.717,2.717,0,0,0,1988.7,1976.319Z" transform="translate(-1965.373 -1967.628)" fill="#80af52"/>
        <path id="Path_37031" data-name="Path 37031" d="M1998.523,1993.269a1.417,1.417,0,0,0-1.489-.452,2.6,2.6,0,0,0-.926.521,1.258,1.258,0,0,1-.547.326.5.5,0,0,1-.42-.174.666.666,0,0,1-.131-.5,1.077,1.077,0,0,1,.289-.626.871.871,0,0,1,.569-.294.507.507,0,0,1,.434.173.386.386,0,0,0,.591.017.516.516,0,0,0,.015-.667,1.281,1.281,0,0,0-1.089-.464,1.567,1.567,0,0,0-.761.266l-.17-.2a.4.4,0,0,0-.292-.146.388.388,0,0,0-.3.13.515.515,0,0,0-.015.667l.17.2a2.071,2.071,0,0,0-.273.844,1.666,1.666,0,0,0,.356,1.25,1.283,1.283,0,0,0,1.057.466h.009a1.81,1.81,0,0,0,1.006-.511,1.8,1.8,0,0,1,.621-.36.651.651,0,0,1,.688.184,1.062,1.062,0,0,1-.178,1.341,1.038,1.038,0,0,1-.647.345.618.618,0,0,1-.549-.211.386.386,0,0,0-.591-.016.5.5,0,0,0-.13.33.5.5,0,0,0,.115.337,1.4,1.4,0,0,0,1.18.5,1.691,1.691,0,0,0,.772-.253l.185.219a.4.4,0,0,0,.292.146h.011a.391.391,0,0,0,.288-.13.515.515,0,0,0,.015-.667l-.154-.183a2.256,2.256,0,0,0,.384-1.056,2,2,0,0,0-.057-.717A1.65,1.65,0,0,0,1998.523,1993.269Z" transform="translate(-1979.902 -1981.127)" fill="#030504"/>
        <path id="Path_37032" data-name="Path 37032" d="M1973.681,1984.625a.5.5,0,0,0,.115.337l3.14,3.724a.394.394,0,0,0,.292.146.389.389,0,0,0,.3-.13,1.483,1.483,0,0,1,2.266.14.394.394,0,0,0,.292.146h.011a.391.391,0,0,0,.288-.13l9.084-9.745a.515.515,0,0,0,.015-.667,2.04,2.04,0,0,1-.473-1.312,1.807,1.807,0,0,1,.463-1.248.516.516,0,0,0,.015-.667l-3.14-3.724a.385.385,0,0,0-.591-.017,1.484,1.484,0,0,1-2.266-.14.4.4,0,0,0-.292-.146.386.386,0,0,0-.3.13l-9.084,9.744a.516.516,0,0,0-.015.667,1.982,1.982,0,0,1,.01,2.56A.5.5,0,0,0,1973.681,1984.625Zm14.673-8.529a2.988,2.988,0,0,0-.181,1.03,3.074,3.074,0,0,0,.441,1.6l-8.528,9.147a2.329,2.329,0,0,0-1.4-.577c-.04,0-.08,0-.12,0a2.131,2.131,0,0,0-.8.156,2.207,2.207,0,0,0-.487.273l-2.616-3.1a2.713,2.713,0,0,0,.266-.536,3,3,0,0,0,.181-1.03,3.073,3.073,0,0,0-.441-1.6l8.527-9.147a2.33,2.33,0,0,0,1.4.577,2.136,2.136,0,0,0,.922-.152,2.227,2.227,0,0,0,.487-.273l2.616,3.1A2.7,2.7,0,0,0,1988.354,1976.1Z" transform="translate(-1965.025 -1967.405)" fill="#030504"/>
        <path id="Path_37033" data-name="Path 37033" d="M1982.279,1968.7a.5.5,0,0,0-.115-.337l-7.829-9.286a.386.386,0,0,0-.591-.017l-8.925,9.574a8.832,8.832,0,0,1-1.257,1.066,5.119,5.119,0,0,1-2.751,1.039.475.475,0,0,0,0,.943,4.609,4.609,0,0,0,1.754-.378,7.593,7.593,0,0,0,1.45-.811,9.543,9.543,0,0,0,1.381-1.176l8.622-9.249,7.253,8.6-13.513,14.494-2.609-3.094a9.976,9.976,0,0,0-1.661-1.565,8.639,8.639,0,0,0-1.847-1.076,6.1,6.1,0,0,0-2.353-.5.475.475,0,0,0,0,.943,6.419,6.419,0,0,1,3.722,1.4,9.337,9.337,0,0,1,1.52,1.425l2.909,3.451a.4.4,0,0,0,.292.146h.011a.393.393,0,0,0,.288-.13l14.118-15.145A.5.5,0,0,0,1982.279,1968.7Z" transform="translate(-1954.271 -1958.927)" fill="#030504"/>
        <path id="Path_37034" data-name="Path 37034" d="M2025.428,1995.934a.439.439,0,0,0,.236-.243.523.523,0,0,0,.015-.36l-.637-1.992a.427.427,0,0,0-.4-.33.45.45,0,0,0-.42.474.524.524,0,0,0,.028.17l.515,1.6a2.38,2.38,0,0,0-.434.37,2.721,2.721,0,0,0-.532.862,3.146,3.146,0,0,0-.166,1.668l-6.239,2.551a.472.472,0,0,0-.3.455.45.45,0,0,0,.42.474.386.386,0,0,0,.111-.017.425.425,0,0,0,.061-.024l6.6-2.7a.491.491,0,0,0,.251-.6A1.9,1.9,0,0,1,2025.428,1995.934Z" transform="translate(-1996.548 -1982.481)" fill="#030504"/>
        <path id="Path_37035" data-name="Path 37035" d="M2021.928,1982.689l-3.87-12.049a.407.407,0,0,0-.535-.283l-2.266.926a.466.466,0,0,0-.329.463.45.45,0,0,0,.421.474.374.374,0,0,0,.178-.045l1.889-.772,3.585,11.162-12.322,5.036-.027.011a.477.477,0,0,0-.263.44.45.45,0,0,0,.421.474.38.38,0,0,0,.146-.029l12.723-5.206A.49.49,0,0,0,2021.928,1982.689Z" transform="translate(-1990.229 -1966.808)" fill="#030504"/>
        <path id="Path_37036" data-name="Path 37036" d="M1972.97,1974.62h3.1a.475.475,0,0,0,0-.943h-3.1a.475.475,0,0,0,0,.943Z" transform="translate(-1964.206 -1969.121)" fill="#030504"/>
        <path id="Path_37037" data-name="Path 37037" d="M1950.053,1987.353a.448.448,0,0,0-.418-.471h-4.412a.475.475,0,0,0,0,.943h4.412A.448.448,0,0,0,1950.053,1987.353Z" transform="translate(-1944.057 -1978.247)" fill="#030504"/>
        <path id="Path_37038" data-name="Path 37038" d="M1969.839,1987.825h.449a.475.475,0,0,0,0-.943h-.449a.475.475,0,0,0,0,.943Z" transform="translate(-1961.932 -1978.247)" fill="#030504"/>
        <path id="Path_37039" data-name="Path 37039" d="M1942.768,2007.292h-.278a.475.475,0,0,0,0,.943h.278a.475.475,0,0,0,0-.943Z" transform="translate(-1942.072 -1992.353)" fill="#030504"/>
        <path id="Path_37040" data-name="Path 37040" d="M1954.922,2007.292h-1.906a.475.475,0,0,0,0,.943h1.906a.475.475,0,0,0,0-.943Z" transform="translate(-1949.716 -1992.353)" fill="#030504"/>
        <path id="Path_37041" data-name="Path 37041" d="M1953.9,2029.344H1951.7a.475.475,0,0,0,0,.943h2.206a.475.475,0,0,0,0-.943Z" transform="translate(-1948.757 -2007.594)" fill="#030504"/>
        <path id="Path_37042" data-name="Path 37042" d="M1967.293,2029.344h-.363a.475.475,0,0,0,0,.943h.363a.475.475,0,0,0,0-.943Z" transform="translate(-1959.82 -2007.594)" fill="#030504"/>
        <path id="Path_37043" data-name="Path 37043" d="M2012.565,1980.457a1.858,1.858,0,0,0-1.411-.682,1.827,1.827,0,0,0-1.341.6,2.4,2.4,0,0,0-.069,3.1,1.856,1.856,0,0,0,1.41.682,1.826,1.826,0,0,0,1.341-.6A2.4,2.4,0,0,0,2012.565,1980.457Zm-1.41,2.728a1.224,1.224,0,1,1,1.078-1.215A1.153,1.153,0,0,1,2011.154,1983.185Z" transform="translate(-1990.825 -1973.336)" fill="#030504"/>
        <ellipse id="Ellipse_21" data-name="Ellipse 21" cx="1.077" cy="1.215" rx="1.077" ry="1.215" transform="translate(19.252 7.419)" fill="#80af52"/>
        <path id="Path_37044" data-name="Path 37044" d="M1986.657,2005.64a1.857,1.857,0,0,0-1.411-.682,1.826,1.826,0,0,0-1.341.6,2.4,2.4,0,0,0-.069,3.1,1.856,1.856,0,0,0,1.41.682,1.827,1.827,0,0,0,1.341-.6A2.4,2.4,0,0,0,1986.657,2005.64Zm-1.41,2.728a1.224,1.224,0,1,1,1.077-1.215A1.153,1.153,0,0,1,1985.247,2008.367Z" transform="translate(-1972.012 -1990.74)" fill="#030504"/>
        <ellipse id="Ellipse_22" data-name="Ellipse 22" cx="1.077" cy="1.215" rx="1.077" ry="1.215" transform="translate(12.158 15.197)" fill="#80af52"/>
      </g>
    </g>
    <g id="ChanceCrypto" transform="translate(102)">
      <rect id="icon_bg-4" data-name="icon_bg" width="44" height="34" fill="#fff" opacity="0"/>
      <g id="ChanceCrypto-2" data-name="ChanceCrypto" transform="translate(1.01 1.878)">
        <circle id="Ellipse_16" data-name="Ellipse 16" cx="1.758" cy="1.758" r="1.758" transform="translate(37.989 18.549) rotate(-90)" fill="#6aa9ff"/>
        <path id="Path_36572" data-name="Path 36572" d="M1098.193-1645.528a1.319,1.319,0,0,1-1.319,1.319,1.32,1.32,0,0,1-1.319-1.319,1.32,1.32,0,0,1,1.319-1.319A1.32,1.32,0,0,1,1098.193-1645.528Z" transform="translate(-1072.64 1660.629)" fill="#6aa9ff"/>
        <circle id="Ellipse_18" data-name="Ellipse 18" cx="5.275" cy="5.275" r="5.275" transform="translate(25.028 1.758)" fill="#ff9f22"/>
        <circle id="Ellipse_19" data-name="Ellipse 19" cx="5.275" cy="5.275" r="5.275" transform="translate(3.957 17.67)" fill="#ff9f22"/>
        <path id="Path_36575" data-name="Path 36575" d="M1128.29-1542.583v-12.309l5.483,6.154Z" transform="translate(-1098.165 1571.682)" fill="#02ba66"/>
        <rect id="Rectangle_133" data-name="Rectangle 133" width="11.43" height="5.275" transform="translate(18.696 20.308)" fill="#00dd80"/>
        <path id="Path_36576" data-name="Path 36576" d="M1003.405-1632.328v12.309l-5.483-6.155Z" transform="translate(-993.324 1633.208)" fill="#ff3939"/>
        <path id="Path_36578" data-name="Path 36578" d="M1002.863-1538.785v-.988q-.562.049-.562.466a.389.389,0,0,0,.141.318A1.25,1.25,0,0,0,1002.863-1538.785Zm.378,1.493v.965c.411-.017.618-.158.618-.427a.373.373,0,0,0-.169-.324A1.873,1.873,0,0,0,1003.241-1537.292Zm1.863-3.035-.579,1.092a.646.646,0,0,0-.141-.1,3.019,3.019,0,0,0-.3-.156,4.158,4.158,0,0,0-.4-.16,2.456,2.456,0,0,0-.446-.109v1.092l.257.065a6.835,6.835,0,0,1,.739.245,1.988,1.988,0,0,1,.558.33,1.333,1.333,0,0,1,.354.477,1.663,1.663,0,0,1,.125.674,1.724,1.724,0,0,1-.161.779,1.49,1.49,0,0,1-.43.527,1.906,1.906,0,0,1-.618.308,3,3,0,0,1-.735.121v.932h-.554v-.94a4.873,4.873,0,0,1-1.1-.225,3.983,3.983,0,0,1-.976-.465l.579-1.149a.9.9,0,0,0,.172.133,2.787,2.787,0,0,0,.358.192,4.621,4.621,0,0,0,.49.193,2.987,2.987,0,0,0,.562.132v-1.068l-.385-.112a4.882,4.882,0,0,1-.682-.261,1.815,1.815,0,0,1-.478-.325,1.2,1.2,0,0,1-.281-.426,1.569,1.569,0,0,1-.092-.563,1.8,1.8,0,0,1,.145-.742,1.719,1.719,0,0,1,.389-.558,1.782,1.782,0,0,1,.578-.366,2.691,2.691,0,0,1,.719-.172v-.812h.554v.812a3.439,3.439,0,0,1,.979.233A6.629,6.629,0,0,1,1005.1-1540.327Z" transform="translate(-993.756 1560.927)"/>
        <path id="Path_36580" data-name="Path 36580" d="M1076.5-1616.929a.879.879,0,0,1,.879-.879.879.879,0,0,1,.879.879.879.879,0,0,1-.879.879A.879.879,0,0,1,1076.5-1616.929Z" transform="translate(-1057.627 1621.325)"/>
        <path id="Path_36581" data-name="Path 36581" d="M1091.019-1616.929a.879.879,0,0,1,.879-.879.879.879,0,0,1,.879.879.879.879,0,0,1-.879.879A.879.879,0,0,1,1091.019-1616.929Z" transform="translate(-1069.508 1621.325)"/>
        <path id="Path_36599" data-name="Path 36599" d="M1091.019-1616.929a.879.879,0,0,1,.879-.879.879.879,0,0,1,.879.879.879.879,0,0,1-.879.879A.879.879,0,0,1,1091.019-1616.929Z" transform="translate(-1091.019 1629.832)"/>
        <path id="Path_36586" data-name="Path 36586" d="M1000.323-1636.289v3.517a.879.879,0,0,1-.879.879.879.879,0,0,1-.879-.879v-1.208l-3.426,3.846,3.426,3.846v-1.208a.879.879,0,0,1,.879-.879.879.879,0,0,1,.879.879v3.517a.879.879,0,0,1-.566.822.879.879,0,0,1-.97-.237l-5.483-6.154a.879.879,0,0,1,0-1.17l5.483-6.155a.879.879,0,0,1,.97-.237A.879.879,0,0,1,1000.323-1636.289Z" transform="translate(-989.363 1637.168)"/>
        <path id="Path_36587" data-name="Path 36587" d="M1033.814-1611.653a.879.879,0,0,1-.879.879h-8.792a.879.879,0,0,1-.879-.879v-5.275a.879.879,0,0,1,.879-.879h7.034a.879.879,0,0,1,.879.879.879.879,0,0,1-.879.879h-6.155v3.517h7.913A.879.879,0,0,1,1033.814-1611.653Z" transform="translate(-1014.062 1621.325)"/>
        <path id="Path_36588" data-name="Path 36588" d="M1123.451-1546.544v-3.517a.879.879,0,0,1,.879-.879.879.879,0,0,1,.879.879v1.208l3.426-3.846-3.426-3.846v1.208a.879.879,0,0,1-.879.879.879.879,0,0,1-.879-.879v-3.517a.88.88,0,0,1,.566-.822.879.879,0,0,1,.97.237l5.483,6.154a.879.879,0,0,1,0,1.17l-5.483,6.155a.879.879,0,0,1-.97.237A.879.879,0,0,1,1123.451-1546.544Z" transform="translate(-1094.204 1575.643)"/>
        <path id="Path_36589" data-name="Path 36589" d="M1060.535-1534.219v-5.275a.879.879,0,0,1,.879-.879h11.43a.879.879,0,0,1,.879.879v5.275a.879.879,0,0,1-.879.879h-11.43A.879.879,0,0,1,1060.535-1534.219Zm1.758-4.4v3.517h9.671v-3.517Z" transform="translate(-1042.718 1559.801)"/>
        <path id="Path_36593" data-name="Path 36593" d="M1117.847-1626.174a6.162,6.162,0,0,1-6.155,6.155,6.162,6.162,0,0,1-6.155-6.155,6.162,6.162,0,0,1,6.155-6.155A6.162,6.162,0,0,1,1117.847-1626.174Zm-10.551,0a4.4,4.4,0,0,0,4.4,4.4,4.4,4.4,0,0,0,4.4-4.4,4.4,4.4,0,0,0-4.4-4.4A4.4,4.4,0,0,0,1107.3-1626.174Z" transform="translate(-1081.389 1633.208)"/>
        <path id="Path_36594" data-name="Path 36594" d="M979.4-1548.738a6.162,6.162,0,0,1,6.155-6.155,6.162,6.162,0,0,1,6.154,6.155,6.162,6.162,0,0,1-6.154,6.155A6.162,6.162,0,0,1,979.4-1548.738Zm10.551,0a4.4,4.4,0,0,0-4.4-4.4,4.4,4.4,0,0,0-4.4,4.4,4.4,4.4,0,0,0,4.4,4.4A4.4,4.4,0,0,0,989.952-1548.738Z" transform="translate(-976.324 1571.683)"/>
        <path id="Path_36595" data-name="Path 36595" d="M1198.249-1596.133a2.641,2.641,0,0,1-2.638,2.637,2.641,2.641,0,0,1-2.638-2.637,2.641,2.641,0,0,1,2.638-2.638A2.641,2.641,0,0,1,1198.249-1596.133Zm-3.517,0a.88.88,0,0,0,.879.879.88.88,0,0,0,.879-.879.88.88,0,0,0-.879-.879A.88.88,0,0,0,1194.732-1596.133Z" transform="translate(-1155.864 1612.924)"/>
        <path id="Path_36598" data-name="Path 36598" d="M1090.715-1649.488a2.2,2.2,0,0,1,2.2-2.2,2.2,2.2,0,0,1,2.2,2.2,2.2,2.2,0,0,1-2.2,2.2A2.2,2.2,0,0,1,1090.715-1649.488Zm2.638,0a.44.44,0,0,0-.44-.44.44.44,0,0,0-.44.44.44.44,0,0,0,.44.44A.44.44,0,0,0,1093.353-1649.488Z" transform="translate(-1068.68 1664.589)"/>
        <path id="Path_36600" data-name="Path 36600" d="M82.037,28.719a1.214,1.214,0,0,0-.647-.345,1.525,1.525,0,0,0,.343-.172,1,1,0,0,0,.234-.22.841.841,0,0,0,.134-.26.97.97,0,0,0,.043-.287,1.266,1.266,0,0,0-.093-.5.907.907,0,0,0-.3-.377,1.482,1.482,0,0,0-.525-.24c-.048-.012-.107-.019-.16-.028v-.681h-.618v.624h-.412v-.624H79.42v.624h-.6v4.427h.6v.624h.618v-.624h.412v.624h.618v-.674a1.878,1.878,0,0,0,.227-.052,1.518,1.518,0,0,0,.521-.282,1.207,1.207,0,0,0,.321-.424,1.265,1.265,0,0,0,.109-.525A.892.892,0,0,0,82.037,28.719Zm-2.19-1.712h.6a1.4,1.4,0,0,1,.3.028.512.512,0,0,1,.209.091.381.381,0,0,1,.122.169.761.761,0,0,1,.04.263.628.628,0,0,1-.05.267.391.391,0,0,1-.146.167.639.639,0,0,1-.232.085,1.777,1.777,0,0,1-.307.024h-.535ZM81.2,29.52a.454.454,0,0,1-.1.185.528.528,0,0,1-.2.134.9.9,0,0,1-.333.052h-.723v-1.1h.717a1.194,1.194,0,0,1,.322.036.539.539,0,0,1,.205.1.361.361,0,0,1,.109.164.708.708,0,0,1,.032.219A.821.821,0,0,1,81.2,29.52Z" transform="translate(-50.165 -21.422)"/>
      </g>
    </g>
  </g>
</svg>
