<svg id="icons_spite_btnssmclrd" xmlns="http://www.w3.org/2000/svg" width="48" height="24" viewBox="0 0 48 24">
  <g id="_24" data-name="24" transform="translate(-2)">
    <g id="EyeShow" transform="translate(2)">
      <rect id="icon_bg" width="24" height="24" fill="#fff" opacity="0"/>
      <path id="EyeShow-2" data-name="EyeShow" d="M-.543-89.725-.65-90l.106-.275A11.978,11.978,0,0,1,10.68-98h.027a12.119,12.119,0,0,1,11.218,7.726l.107.274-.108.276a12.147,12.147,0,0,1-6.836,6.889A11.915,11.915,0,0,1,10.7-82,12.083,12.083,0,0,1-.543-89.725ZM.965-90a10.55,10.55,0,0,0,13.577,5.758A10.631,10.631,0,0,0,20.416-90a10.607,10.607,0,0,0-9.708-6.487h-.026A10.481,10.481,0,0,0,.965-90Zm4.654,0a5.1,5.1,0,0,1,5.071-5.109A5.1,5.1,0,0,1,15.759-90a5.1,5.1,0,0,1-5.07,5.108A5.1,5.1,0,0,1,5.619-90Zm1.5,0a3.588,3.588,0,0,0,3.57,3.6A3.588,3.588,0,0,0,14.259-90a3.588,3.588,0,0,0-3.569-3.6A3.589,3.589,0,0,0,7.119-90Z" transform="translate(1.3 102)" fill="#9099a0" stroke="rgba(0,0,0,0)" stroke-miterlimit="10" stroke-width="1"/>
    </g>
    <g id="EyeHide" transform="translate(26)">
      <rect id="icon_bg-2" data-name="icon_bg" width="24" height="24" fill="#fff" opacity="0"/>
      <path id="EyeHide-2" data-name="EyeHide" d="M19.113-77.659l-5.765-5.8a5.046,5.046,0,0,1-3.007,1.013,5.041,5.041,0,0,1-3.584-1.488,5.07,5.07,0,0,1-1.487-3.6,5.044,5.044,0,0,1,1.018-3.034l-4.8-4.834a.755.755,0,0,1,.008-1.065.748.748,0,0,1,1.06.008L20.174-78.725a.757.757,0,0,1,0,1.066.752.752,0,0,1-.53.221A.748.748,0,0,1,19.113-77.659ZM6.77-87.539A3.573,3.573,0,0,0,7.817-85a3.564,3.564,0,0,0,4.469.469L7.352-89.5A3.584,3.584,0,0,0,6.77-87.539Zm3.557,7.988a11.968,11.968,0,0,1-11.22-7.7L-1-87.527l.106-.273A12.3,12.3,0,0,1,2.6-92.712a.747.747,0,0,1,1.057.088.758.758,0,0,1-.088,1.063A10.791,10.791,0,0,0,.615-87.527a10.612,10.612,0,0,0,9.711,6.469h.015a10.385,10.385,0,0,0,3.561-.648.745.745,0,0,1,.963.445.753.753,0,0,1-.444.967,11.809,11.809,0,0,1-4.077.742Zm6.7-2.935a.757.757,0,0,1,.094-1.061A10.937,10.937,0,0,0,20.1-87.537a10.555,10.555,0,0,0-9.76-6.475,10.5,10.5,0,0,0-3.565.615.752.752,0,0,1-.959-.455.755.755,0,0,1,.453-.964,11.309,11.309,0,0,1,4.075-.7,12.051,12.051,0,0,1,11.266,7.71l.11.279-.112.279a12.431,12.431,0,0,1-3.519,4.858.753.753,0,0,1-.482.176A.753.753,0,0,1,17.03-82.487Zm-2.858-2.925a.752.752,0,0,1-.463-.958,3.589,3.589,0,0,0-2.194-4.557,3.566,3.566,0,0,0-2.344,0,.748.748,0,0,1-.955-.464.756.756,0,0,1,.463-.959,5.061,5.061,0,0,1,3.328,0,5.1,5.1,0,0,1,3.119,6.474.75.75,0,0,1-.708.506A.752.752,0,0,1,14.171-85.411Z" transform="translate(1.65 99.538)" fill="#9099a0" stroke="rgba(0,0,0,0)" stroke-miterlimit="10" stroke-width="1"/>
    </g>
  </g>
</svg>
