<svg id="icons_spite_24_btnssmclrd" xmlns="http://www.w3.org/2000/svg" width="72" height="24" viewBox="0 0 72 24">
  <g id="_24" data-name="24">
    <g id="EyeShow">
      <rect id="icon_bg" width="24" height="24" fill="#fff" opacity="0"/>
      <path id="EyeShow-2" data-name="EyeShow" d="M.107,8.275,0,8l.106-.275A11.978,11.978,0,0,1,11.33,0h.027A12.119,12.119,0,0,1,22.575,7.726L22.682,8l-.108.276a12.147,12.147,0,0,1-6.836,6.889A11.915,11.915,0,0,1,11.354,16,12.083,12.083,0,0,1,.107,8.275ZM1.615,8a10.55,10.55,0,0,0,13.577,5.758A10.631,10.631,0,0,0,21.065,8a10.607,10.607,0,0,0-9.708-6.487h-.026A10.481,10.481,0,0,0,1.615,8ZM6.268,8a5.07,5.07,0,1,1,5.071,5.108A5.1,5.1,0,0,1,6.268,8Zm1.5,0a3.57,3.57,0,1,0,3.57-3.6A3.588,3.588,0,0,0,7.769,8Z" transform="translate(0.65 4)" fill="#9099a0" stroke="rgba(0,0,0,0)" stroke-miterlimit="10" stroke-width="1"/>
    </g>
    <g id="EyeHide" transform="translate(24)">
      <rect id="icon_bg-2" data-name="icon_bg" width="24" height="24" fill="#fff" opacity="0"/>
      <path id="EyeHide-2" data-name="EyeHide" d="M20.113,19.029l-5.765-5.8a5.062,5.062,0,0,1-7.06-7.11l-4.8-4.834A.751.751,0,1,1,3.555.224L21.174,17.963a.754.754,0,0,1-.53,1.287A.748.748,0,0,1,20.113,19.029ZM7.77,9.149a3.572,3.572,0,0,0,5.516,3.005L8.352,7.187A3.584,3.584,0,0,0,7.77,9.149Zm3.557,7.988a11.968,11.968,0,0,1-11.22-7.7L0,9.161l.106-.273A12.3,12.3,0,0,1,3.6,3.976a.747.747,0,0,1,1.057.088.758.758,0,0,1-.088,1.063A10.791,10.791,0,0,0,1.615,9.161a10.612,10.612,0,0,0,9.711,6.469h.015a10.385,10.385,0,0,0,3.561-.648.745.745,0,0,1,.963.445.753.753,0,0,1-.444.967,11.809,11.809,0,0,1-4.077.742Zm6.7-2.935a.757.757,0,0,1,.094-1.061A10.937,10.937,0,0,0,21.1,9.151,10.6,10.6,0,0,0,7.774,3.291a.753.753,0,0,1-.507-1.419,11.309,11.309,0,0,1,4.075-.7,12.051,12.051,0,0,1,11.266,7.71l.11.279-.112.279A12.431,12.431,0,0,1,19.087,14.3.747.747,0,0,1,18.03,14.2Zm-2.858-2.925a.752.752,0,0,1-.463-.958,3.569,3.569,0,0,0-4.538-4.557.753.753,0,0,1-.492-1.423,5.071,5.071,0,0,1,6.447,6.474.745.745,0,0,1-.954.464Z" transform="translate(0.65 2.85)" fill="#9099a0" stroke="rgba(0,0,0,0)" stroke-miterlimit="10" stroke-width="1"/>
    </g>
    <g id="TextCopy" transform="translate(48)">
      <rect id="icon_bg-3" data-name="icon_bg" width="24" height="24" fill="#fff" opacity="0"/>
      <path id="TextCopy-2" data-name="TextCopy" d="M-46.067-77.161A1.933,1.933,0,0,1-48-79.094V-89.173a1.932,1.932,0,0,1,1.932-1.932h7.649a1.932,1.932,0,0,1,1.932,1.932v10.079a1.933,1.933,0,0,1-1.932,1.933Zm-.954-12.012v10.079a.956.956,0,0,0,.954.954h7.649a.956.956,0,0,0,.954-.954V-89.173a.956.956,0,0,0-.954-.954h-7.649A.956.956,0,0,0-47.021-89.173Zm12.1,8.312h-.429a.487.487,0,0,1-.486-.487.486.486,0,0,1,.486-.487h.437a.732.732,0,0,0,.731-.731v-9.5a.956.956,0,0,0-.954-.954h-7.078a.732.732,0,0,0-.732.725.486.486,0,0,1-.486.487.487.487,0,0,1-.487-.487,1.706,1.706,0,0,1,1.7-1.7h7.07a1.933,1.933,0,0,1,1.933,1.932v9.507a1.708,1.708,0,0,1-1.707,1.7Z" transform="translate(52.5 97.5)" fill="#9099a0" stroke="#9099a0" stroke-width="0.2"/>
    </g>
  </g>
</svg>
